<?xml version="1.0" standalone="no"?>
<!DOCTYPE svg PUBLIC "-//W3C//DTD SVG 1.1//EN" "http://www.w3.org/Graphics/SVG/1.1/DTD/svg11.dtd" >
<svg xmlns="http://www.w3.org/2000/svg" width="100%" height="100%">
<metadata>
Created by FontXChange 20100429 at Mon Aug 25 15:40:13 2014
 By Noah Litvin
HTF Knockout (c) 1990-7 The Hoefler Type Foundry, Inc. http://www.typography.com
</metadata>
<defs>
<font id="Knockout-HTF50-Welterweight" horiz-adv-x="520" >
  <font-face 
    font-family="Knockout"
    font-weight="500"
    font-stretch="normal"
    units-per-em="1000"
    panose-1="2 0 6 3 0 0 0 0 0 0"
    ascent="800"
    descent="-200"
    x-height="480"
    cap-height="666"
    bbox="-222 -256 891 853"
    underline-thickness="20"
    underline-position="-133"
    stemh="93"
    stemv="120"
    unicode-range="U+0001-20AC"
  />
    <missing-glyph />
    <glyph glyph-name="uni0001" horiz-adv-x="560" 
d="M229 379h73v-92h-73v-169h67c56 0 81 32 81 85v260c0 53 -25 84 -81 84h-67v-168zM86 287h-86v92h86v287h221c138 0 212 -89 212 -201v-273c0 -112 -74 -192 -212 -192h-221v287z" />
    <glyph glyph-name="uni0002" horiz-adv-x="423" 
d="M264 139v188c0 39 -21 64 -55 64c-32 0 -53 -22 -53 -67v-185c0 -32 22 -56 53 -56c32 0 55 24 55 56zM232 534l-47 -32l-29 47l36 25c-24 16 -54 26 -89 26v66h23c60 0 108 -14 146 -37l52 36l29 -48l-35 -23c45 -46 66 -106 66 -165v-268c0 -107 -77 -169 -175 -169
s-171 62 -171 169v179c0 78 52 140 117 140c49 0 78 -16 110 -52c0 38 -11 76 -33 106z" />
    <glyph glyph-name="uni0003" horiz-adv-x="457" 
d="M251 315v-192h220v-123h-363v253l-87 -38l-22 59l109 47v345h143v-283l80 35l22 -59z" />
    <glyph glyph-name="uni0004" horiz-adv-x="287" 
d="M304 425l-100 -79v-346h-122v248l-63 -50l-37 51l100 79v338h122v-240l64 50z" />
    <glyph glyph-name="uni0005" horiz-adv-x="481" 
d="M454 185c0 -108 -80 -202 -213 -202c-131 0 -214 75 -214 189v34h131v-22c0 -56 28 -86 80 -86c51 0 76 29 76 75c0 48 -38 77 -115 117c-80 43 -165 96 -165 198s73 194 209 194c122 0 203 -82 203 -188v-27h-129v21c0 45 -25 80 -75 80c-42 0 -69 -26 -69 -66
c0 -47 38 -73 123 -117c93 -51 158 -103 158 -200zM381 813c-42 0 -74 -31 -93 -97h-99c-18 66 -50 97 -91 97v31c15 5 35 7 49 7c47 0 82 -31 95 -82c13 51 49 82 95 82c15 0 28 -2 44 -7v-31z" />
    <glyph glyph-name="uni0006" horiz-adv-x="390" 
d="M362 135c0 -70 -51 -143 -164 -143c-110 0 -169 64 -169 150v17h102v-17c0 -44 25 -62 63 -62c37 0 57 15 57 48c0 42 -40 59 -107 87c-67 27 -107 63 -107 133c0 87 67 141 161 141c102 0 159 -60 159 -145v-8h-100v12c0 31 -18 50 -57 50c-33 0 -51 -14 -51 -42
s23 -43 81 -66c75 -29 132 -68 132 -155zM337 653c-42 0 -74 -31 -93 -97h-99c-18 66 -50 97 -91 97v31c15 5 35 7 49 7c47 0 82 -31 95 -82c13 51 49 82 95 82c15 0 28 -2 44 -7v-31z" />
    <glyph glyph-name="uni0007" horiz-adv-x="483" 
d="M488 666l-175 -390v-276h-143v276l-172 390h150l101 -263l96 263h143zM367 849l-89 -143h-68l40 143h117z" />
    <glyph glyph-name="uni0008" horiz-adv-x="387" 
d="M382 480l-136 -482c-25 -92 -53 -153 -164 -153h-39v87h26c45 0 54 12 64 49l8 28l-133 471h118l54 -238l18 -90l17 90l52 238h115zM319 689l-89 -143h-68l40 143h117z" />
    <glyph glyph-name="uni000B" horiz-adv-x="486" 
d="M460 302c0 -99 -59 -164 -171 -164h-98v-138h-143v666h144v-109h97c112 0 171 -66 171 -165v-90zM323 300v89c0 36 -14 56 -51 56h-81v-201h81c37 0 51 19 51 56z" />
    <glyph glyph-name="uni000C" horiz-adv-x="431" 
d="M392 131c0 -77 -52 -140 -117 -140c-49 0 -77 16 -109 51v-194h-121v818h121v-230c32 36 60 52 109 52c65 0 117 -63 117 -140v-217zM275 152v175c0 44 -21 65 -54 65s-55 -24 -55 -62v-181c0 -38 22 -63 55 -63s54 22 54 66z" />
    <glyph glyph-name="uni000E" horiz-adv-x="465" 
d="M444 626l-247 -502h238v-124h-416v40l251 507h-236v119h410v-40zM378 813c-42 0 -74 -31 -93 -97h-99c-18 66 -50 97 -91 97v31c15 5 35 7 49 7c47 0 82 -31 95 -82c13 51 49 82 95 82c15 0 28 -2 44 -7v-31z" />
    <glyph glyph-name="uni000F" horiz-adv-x="359" 
d="M338 420l-182 -317h176v-103h-310v60l185 321h-175v99h306v-60zM328 653c-42 0 -74 -31 -93 -97h-99c-18 66 -50 97 -91 97v31c15 5 35 7 49 7c47 0 82 -31 95 -82c13 51 49 82 95 82c15 0 28 -2 44 -7v-31z" />
    <glyph glyph-name="space" unicode=" " horiz-adv-x="174" 
 />
    <glyph glyph-name="exclam" unicode="!" horiz-adv-x="219" 
d="M172 377l-43 -182h-39l-43 182v289h125v-289zM163 0h-108v123h108v-123z" />
    <glyph glyph-name="quotedbl" unicode="&#x22;" horiz-adv-x="294" 
d="M307 666l-88 -208h-67l59 208h96zM159 666l-66 -208h-66l38 208h94z" />
    <glyph glyph-name="numbersign" unicode="#" horiz-adv-x="661" 
d="M649 430h-149l-37 -195h155v-65h-168l-32 -170h-75l32 170h-145l-32 -170h-75l33 170h-138v65h150l37 195h-156v66h168l33 170h75l-33 -170h145l33 170h75l-33 -170h137v-66zM425 430h-145l-37 -195h145z" />
    <glyph glyph-name="dollar" unicode="$" horiz-adv-x="481" 
d="M198 677v85h91v-83c94 -17 155 -92 155 -185v-27h-121v23c0 48 -26 82 -74 82c-39 0 -69 -25 -69 -71c0 -45 43 -70 102 -106c77 -45 165 -98 165 -215c0 -92 -58 -174 -158 -193v-83h-91v82c-100 16 -161 86 -161 186v34h123v-25c0 -59 29 -87 79 -87c48 0 76 31 76 79
s-38 74 -115 120c-74 43 -153 94 -153 193c0 91 53 171 151 191z" />
    <glyph glyph-name="percent" unicode="%" horiz-adv-x="644" 
d="M615 95c0 -70 -48 -112 -113 -112c-64 0 -113 42 -113 112v125c0 69 49 111 113 111c65 0 113 -42 113 -111v-125zM541 79v157c0 21 -16 36 -39 36c-22 0 -38 -15 -38 -36v-157c0 -21 16 -37 38 -37c23 0 39 16 39 37zM580 652l-462 -675l-49 36l463 676zM259 446
c0 -70 -48 -111 -113 -111c-64 0 -112 41 -112 111v125c0 69 48 111 112 111c65 0 113 -42 113 -111v-125zM185 430v157c0 21 -16 37 -39 37c-22 0 -37 -16 -37 -37v-157c0 -21 15 -36 37 -36c23 0 39 15 39 36z" />
    <glyph glyph-name="ampersand" unicode="&#x26;" horiz-adv-x="636" 
d="M627 100c0 -76 -43 -117 -115 -117c-39 0 -80 21 -122 55c-46 -34 -105 -55 -164 -55c-113 0 -192 84 -192 180c0 89 57 154 138 201c-23 47 -35 97 -35 132c0 113 74 187 179 187c100 0 152 -66 152 -153c0 -81 -55 -137 -153 -194c24 -49 57 -104 88 -145
c32 46 50 111 50 156h99c0 -77 -33 -162 -82 -231c20 -16 39 -26 57 -26c22 0 31 13 31 34v45h69v-69zM361 523c0 30 -15 51 -44 51c-38 0 -59 -33 -59 -77c0 -23 7 -52 19 -83c61 35 84 77 84 109zM315 115c-38 44 -72 97 -100 150c-32 -22 -51 -54 -51 -92
c0 -49 30 -79 89 -79c25 0 47 10 62 21z" />
    <glyph glyph-name="quotesingle" unicode="'" horiz-adv-x="186" 
d="M197 666l-90 -208h-67l40 208h117z" />
    <glyph glyph-name="parenleft" unicode="(" horiz-adv-x="362" 
d="M373 -142l-35 -42c-165 121 -245 309 -245 482s80 361 245 482l35 -41c-99 -116 -161 -266 -161 -441s62 -324 161 -440z" />
    <glyph glyph-name="parenright" unicode=")" horiz-adv-x="362" 
d="M271 298c0 -173 -80 -361 -245 -482l-35 42c99 116 161 265 161 440s-62 325 -161 441l35 41c165 -121 245 -309 245 -482z" />
    <glyph glyph-name="asterisk" unicode="*" horiz-adv-x="343" 
d="M309 465l-21 -37c-5 -9 -15 -7 -21 -4c-22 13 -44 29 -73 58c9 -37 13 -72 13 -94c0 -7 -4 -16 -13 -16h-44c-9 0 -13 9 -13 16c0 26 3 53 13 93c-28 -27 -55 -47 -74 -58c-6 -4 -16 -5 -21 3l-21 38c-5 8 1 16 7 19c22 13 47 24 86 35c-37 11 -68 25 -87 36
c-6 3 -12 11 -7 19l21 38c5 8 15 7 21 3c22 -13 44 -29 74 -57c-10 37 -14 71 -14 93c0 7 4 16 14 16h43c10 0 13 -9 13 -16c0 -26 -3 -53 -13 -93c28 27 56 48 74 59c7 3 16 4 21 -4l22 -38c4 -8 -1 -16 -8 -19c-22 -13 -47 -24 -86 -35c37 -10 68 -24 87 -35
c6 -4 12 -11 7 -20z" />
    <glyph glyph-name="plus" unicode="+" horiz-adv-x="382" 
d="M350 297h-114v-119h-90v119h-114v91h114v119h90v-119h114v-91z" />
    <glyph glyph-name="comma" unicode="," horiz-adv-x="204" 
d="M157 14c0 -67 -42 -118 -122 -118v33c38 0 63 24 63 71h-51v136h110v-122z" />
    <glyph glyph-name="hyphen" unicode="-" horiz-adv-x="301" 
d="M271 255h-241v93h241v-93z" />
    <glyph glyph-name="period" unicode="." horiz-adv-x="204" 
d="M157 0h-110v136h110v-136z" />
    <glyph glyph-name="slash" unicode="/" horiz-adv-x="286" 
d="M279 729l-190 -793h-78l190 793h78z" />
    <glyph glyph-name="zero" unicode="0" horiz-adv-x="496" 
d="M453 176c0 -115 -79 -193 -205 -193c-127 0 -205 78 -205 193v313c0 116 78 193 205 193c126 0 205 -77 205 -193v-313zM323 169v328c0 37 -27 67 -75 67c-47 0 -75 -30 -75 -67v-328c0 -37 28 -67 75 -67c48 0 75 30 75 67z" />
    <glyph glyph-name="one" unicode="1" horiz-adv-x="280" 
d="M206 0h-132v606c44 0 59 29 59 60h73v-666z" />
    <glyph glyph-name="two" unicode="2" horiz-adv-x="460" 
d="M430 496c0 -81 -46 -149 -164 -240c-71 -53 -89 -100 -89 -138h248v-118h-395v40c0 110 31 189 157 293c86 70 118 114 118 162s-24 75 -71 75c-51 0 -72 -30 -72 -80v-46h-119v60c0 91 61 179 188 179c146 0 199 -91 199 -187z" />
    <glyph glyph-name="three" unicode="3" horiz-adv-x="456" 
d="M426 162c0 -108 -78 -179 -204 -179c-127 0 -188 86 -188 175v54h119v-36c0 -53 24 -80 72 -80s72 27 72 74v65c0 31 -14 54 -60 54h-56v97h56c46 0 60 23 60 54v56c0 47 -24 74 -72 74s-72 -27 -72 -80v-37h-119v55c0 89 61 175 188 175c126 0 204 -71 204 -179v-34
c0 -66 -34 -118 -93 -128c56 -14 93 -57 93 -125v-55z" />
    <glyph glyph-name="four" unicode="4" horiz-adv-x="457" 
d="M443 146h-63v-146h-121v146h-245v92l254 428h112v-414h63v-106zM259 252v210l-122 -210h122z" />
    <glyph glyph-name="five" unicode="5" horiz-adv-x="459" 
d="M425 666c-8 -78 -27 -116 -89 -116h-163l-12 -158c26 37 72 61 132 61c83 0 135 -57 135 -140v-148c0 -111 -78 -182 -205 -182c-126 0 -189 88 -189 175v46h119v-28c0 -49 25 -80 73 -80s73 26 73 77v118c0 38 -25 63 -60 63c-42 0 -70 -29 -80 -59l-113 18l21 353h358z
" />
    <glyph glyph-name="six" unicode="6" horiz-adv-x="480" 
d="M448 176c0 -115 -75 -193 -202 -193c-126 0 -203 78 -203 193v310c0 119 79 197 206 197c126 0 191 -88 191 -175v-40h-117v22c0 53 -25 80 -76 80c-50 0 -74 -30 -74 -81v-144c25 32 66 61 129 61c94 0 146 -59 146 -142v-88zM320 163v86c0 39 -21 66 -72 66
c-48 0 -75 -29 -75 -66v-81c0 -43 28 -72 73 -72c46 0 74 28 74 67z" />
    <glyph glyph-name="seven" unicode="7" horiz-adv-x="439" 
d="M429 599c-122 -197 -188 -375 -188 -599h-146c0 182 92 399 199 545h-266v121h401v-67z" />
    <glyph glyph-name="eight" unicode="8" horiz-adv-x="487" 
d="M448 162c0 -108 -78 -179 -205 -179c-126 0 -204 71 -204 179v53c0 56 30 103 74 122c-44 19 -72 66 -72 123v44c0 108 76 179 202 179c127 0 203 -71 203 -179v-44c0 -57 -28 -104 -72 -123c44 -19 74 -66 74 -122v-53zM319 440v56c0 47 -32 74 -76 74
c-43 0 -75 -27 -75 -74v-56c0 -36 24 -71 75 -71c52 0 76 35 76 71zM320 170v62c0 36 -25 70 -77 70c-51 0 -76 -34 -76 -70v-62c0 -47 33 -74 76 -74c44 0 77 27 77 74z" />
    <glyph glyph-name="nine" unicode="9" horiz-adv-x="490" 
d="M447 177c0 -118 -82 -194 -208 -194c-127 0 -196 81 -196 173v31h116v-12c0 -53 28 -79 81 -79c55 0 77 31 77 78v134c-25 -33 -60 -61 -124 -61c-97 0 -152 63 -152 146v97c0 115 76 192 202 192c131 0 204 -77 204 -193v-312zM317 404v95c0 38 -24 71 -74 71
c-47 0 -73 -29 -73 -67v-99c0 -38 23 -67 73 -67c48 0 74 30 74 67z" />
    <glyph glyph-name="colon" unicode=":" horiz-adv-x="204" 
d="M157 309h-110v136h110v-136zM157 0h-110v136h110v-136z" />
    <glyph glyph-name="semicolon" unicode=";" horiz-adv-x="204" 
d="M157 309h-110v136h110v-136zM157 14c0 -67 -42 -118 -122 -118v33c38 0 63 24 63 71h-51v136h110v-122z" />
    <glyph glyph-name="less" unicode="&#x3c;" horiz-adv-x="505" 
d="M427 75l-376 244v29l376 243v-114l-218 -144l218 -144v-114z" />
    <glyph glyph-name="equal" unicode="=" horiz-adv-x="383" 
d="M351 387h-319v95h319v-95zM351 202h-319v96h319v-96z" />
    <glyph glyph-name="greater" unicode="&#x3e;" horiz-adv-x="505" 
d="M454 318l-376 -243v114l218 144l-218 144v114l376 -244v-29z" />
    <glyph glyph-name="question" unicode="?" horiz-adv-x="426" 
d="M405 507c0 -84 -37 -135 -114 -192c-49 -37 -59 -66 -59 -113h-90c0 89 22 123 91 196c29 31 45 59 45 97c0 53 -23 75 -68 75c-48 0 -69 -30 -69 -82v-50h-117v64c0 99 58 181 184 181c142 0 197 -86 197 -176zM239 0h-108v123h108v-123z" />
    <glyph glyph-name="at" unicode="@" horiz-adv-x="734" 
d="M707 384c0 -115 -69 -227 -198 -227c-64 0 -100 38 -98 89c-27 -51 -71 -80 -119 -80c-59 0 -99 44 -99 109c0 92 78 224 185 224c45 0 72 -26 78 -63l19 54h87l-71 -205c-15 -44 -5 -77 41 -77c64 0 120 66 120 176c0 147 -114 249 -274 249c-174 0 -294 -134 -294 -300
c0 -170 120 -301 294 -301c80 0 149 29 199 75l32 -39c-60 -53 -140 -85 -231 -85c-200 0 -349 153 -349 350c0 193 149 349 349 349c231 0 329 -172 329 -298zM439 394c0 27 -12 51 -44 51c-72 0 -117 -110 -117 -166c0 -37 18 -56 48 -56c39 0 69 38 84 83z" />
    <glyph glyph-name="A" unicode="A" horiz-adv-x="478" 
d="M474 0h-143l-28 132h-138l-28 -132h-134l156 666h160zM284 238l-47 243l-51 -243h98z" />
    <glyph glyph-name="B" unicode="B" horiz-adv-x="500" 
d="M463 153c0 -96 -60 -153 -168 -153h-247v666h244c108 0 167 -58 167 -153v-48c0 -63 -25 -112 -93 -124c71 -15 97 -62 97 -124v-64zM323 442v58c0 33 -14 54 -51 54h-80v-170h74c37 0 57 19 57 58zM326 165v61c0 39 -20 59 -57 59h-77v-173h83c37 0 51 20 51 53z" />
    <glyph glyph-name="C" unicode="C" horiz-adv-x="504" 
d="M474 177c0 -111 -71 -194 -210 -194c-141 0 -223 91 -223 206v288c0 115 82 206 223 206c139 0 210 -83 210 -194v-65h-128v62c0 46 -27 76 -80 76s-80 -31 -80 -74v-311c0 -42 27 -73 80 -73s80 30 80 76v62h128v-65z" />
    <glyph glyph-name="D" unicode="D" horiz-adv-x="523" 
d="M482 192c0 -112 -74 -192 -212 -192h-222v666h222c138 0 212 -89 212 -200v-274zM339 203v260c0 53 -25 84 -80 84h-68v-428h68c55 0 80 31 80 84z" />
    <glyph glyph-name="E" unicode="E" horiz-adv-x="447" 
d="M419 0h-371v666h371v-120h-228v-146h157v-108h-157v-167h228v-125z" />
    <glyph glyph-name="F" unicode="F" horiz-adv-x="425" 
d="M412 550h-221v-159h161v-115h-161v-276h-143v666h364v-116z" />
    <glyph glyph-name="G" unicode="G" horiz-adv-x="517" 
d="M479 0h-78l-18 61c-26 -50 -80 -78 -143 -78c-132 0 -199 91 -199 194v312c0 99 79 193 221 193s214 -89 214 -193v-50h-138v54c0 37 -22 69 -75 69c-52 0 -77 -34 -77 -71v-316c0 -36 27 -71 78 -71c53 0 79 35 79 71v69h-78v98h214v-342z" />
    <glyph glyph-name="H" unicode="H" horiz-adv-x="548" 
d="M500 0h-143v267h-166v-267h-143v666h143v-276h166v276h143v-666z" />
    <glyph glyph-name="I" unicode="I" horiz-adv-x="240" 
d="M191 0h-143v666h143v-666z" />
    <glyph glyph-name="J" unicode="J" horiz-adv-x="481" 
d="M435 185c0 -119 -73 -202 -208 -202c-130 0 -205 76 -205 194v88h136v-89c0 -49 26 -72 68 -72s66 23 66 72v490h143v-481z" />
    <glyph glyph-name="K" unicode="K" horiz-adv-x="509" 
d="M501 0h-150l-111 272l-49 -81v-191h-143v666h143v-298l158 298h145l-155 -280z" />
    <glyph glyph-name="L" unicode="L" horiz-adv-x="423" 
d="M410 0h-362v666h143v-543h219v-123z" />
    <glyph glyph-name="M" unicode="M" horiz-adv-x="687" 
d="M639 0h-135v472l-33 -151l-80 -321h-107l-76 321l-32 151v-472h-128v666h192l80 -339l24 -117l25 117l79 339h191v-666z" />
    <glyph glyph-name="N" unicode="N" horiz-adv-x="542" 
d="M493 0h-110l-147 267l-57 109v-376h-131v666h119l143 -273l54 -109v382h129v-666z" />
    <glyph glyph-name="O" unicode="O" 
d="M479 187c0 -119 -81 -204 -219 -204c-137 0 -219 85 -219 204v292c0 118 82 203 219 203c138 0 219 -85 219 -203v-292zM335 179v308c0 45 -27 75 -75 75c-47 0 -74 -30 -74 -75v-308c0 -45 27 -75 74 -75c48 0 75 30 75 75z" />
    <glyph glyph-name="P" unicode="P" horiz-adv-x="486" 
d="M460 411c0 -99 -59 -164 -171 -164h-98v-247h-143v666h241c112 0 171 -65 171 -165v-90zM323 409v89c0 36 -14 56 -51 56h-81v-201h81c37 0 51 20 51 56z" />
    <glyph glyph-name="Q" unicode="Q" horiz-adv-x="521" 
d="M522 0c-15 -11 -31 -17 -65 -17c-33 0 -67 16 -85 34c-30 -20 -68 -34 -120 -34c-131 0 -211 87 -211 199v302c0 111 81 198 219 198s219 -87 219 -198v-303c0 -28 -6 -54 -18 -75c14 -12 26 -16 61 -16v-90zM334 199v294c0 37 -26 69 -74 69c-47 0 -74 -32 -74 -69v-320
c0 -37 27 -69 74 -69c16 0 31 3 42 10l-29 27z" />
    <glyph glyph-name="R" unicode="R" horiz-adv-x="506" 
d="M492 -4h-85c-58 0 -80 40 -80 102v109c0 35 -18 65 -59 65h-77v-272h-143v666h240c108 0 173 -62 173 -158v-72c0 -54 -26 -95 -86 -111c60 -14 89 -64 89 -110v-109c0 -31 10 -52 28 -68v-42zM323 430v70c0 33 -14 54 -51 54h-81v-183h75c37 0 57 19 57 59z" />
    <glyph glyph-name="S" unicode="S" horiz-adv-x="481" 
d="M454 185c0 -108 -80 -202 -213 -202c-131 0 -214 75 -214 189v34h131v-22c0 -56 28 -86 80 -86c51 0 76 29 76 75c0 48 -38 77 -115 117c-80 43 -165 96 -165 198s73 194 209 194c122 0 203 -82 203 -188v-27h-129v21c0 45 -25 80 -75 80c-42 0 -69 -26 -69 -66
c0 -47 38 -73 123 -117c93 -51 158 -103 158 -200z" />
    <glyph glyph-name="T" unicode="T" horiz-adv-x="453" 
d="M441 544h-143v-544h-143v544h-144v122h430v-122z" />
    <glyph glyph-name="U" unicode="U" horiz-adv-x="527" 
d="M479 170c0 -111 -87 -187 -214 -187c-126 0 -218 76 -218 187v496h145v-494c0 -45 26 -70 73 -70c48 0 75 25 75 70v494h139v-496z" />
    <glyph glyph-name="V" unicode="V" horiz-adv-x="490" 
d="M487 666l-174 -666h-136l-171 666h147l97 -453l97 453h140z" />
    <glyph glyph-name="W" unicode="W" horiz-adv-x="704" 
d="M701 666l-140 -666h-128l-79 389l-82 -389h-127l-139 666h142l72 -436l84 436h111l80 -436l74 436h132z" />
    <glyph glyph-name="X" unicode="X" horiz-adv-x="497" 
d="M488 0h-151l-91 229l-99 -229h-140l160 338l-150 328h150l85 -223l93 223h141l-155 -320z" />
    <glyph glyph-name="Y" unicode="Y" horiz-adv-x="483" 
d="M488 666l-175 -390v-276h-143v276l-172 390h150l101 -263l96 263h143z" />
    <glyph glyph-name="Z" unicode="Z" horiz-adv-x="465" 
d="M444 626l-247 -502h238v-124h-416v40l251 507h-236v119h410v-40z" />
    <glyph glyph-name="bracketleft" unicode="[" horiz-adv-x="331" 
d="M325 -167h-219v931h219v-85h-127v-761h127v-85z" />
    <glyph glyph-name="backslash" unicode="\" horiz-adv-x="285" 
d="M278 -64h-77l-190 793h77z" />
    <glyph glyph-name="bracketright" unicode="]" horiz-adv-x="331" 
d="M224 -167h-219v85h128v761h-128v85h219v-931z" />
    <glyph glyph-name="asciicircum" unicode="^" horiz-adv-x="313" 
d="M299 538c-16 -5 -35 -8 -50 -8c-46 0 -81 32 -94 83c-13 -51 -49 -83 -96 -83c-14 0 -28 3 -43 8v31c41 0 73 30 91 97h99c19 -67 51 -97 93 -97v-31z" />
    <glyph glyph-name="underscore" unicode="_" horiz-adv-x="375" 
d="M375 -93h-375v93h375v-93z" />
    <glyph glyph-name="grave" unicode="`" horiz-adv-x="208" 
d="M171 546h-67l-89 143h116z" />
    <glyph glyph-name="a" unicode="a" horiz-adv-x="417" 
d="M395 -8h-28c-47 0 -81 20 -91 69c-28 -46 -72 -69 -128 -69c-71 0 -124 47 -124 129v6c0 104 93 137 225 159v65c0 28 -16 45 -48 45c-34 0 -46 -16 -46 -48v-28h-111v23c0 82 49 146 162 146c114 0 161 -69 161 -161v-227c0 -18 9 -26 28 -26v-83zM249 130v92
c-76 -11 -110 -32 -110 -80v-18c0 -28 17 -48 47 -48c34 0 63 22 63 54z" />
    <glyph glyph-name="b" unicode="b" horiz-adv-x="431" 
d="M392 142c0 -88 -45 -150 -130 -150c-50 0 -96 21 -119 71l-15 -63h-83v666h121v-247c24 41 63 70 113 70c71 0 113 -65 113 -144v-203zM275 149v178c0 45 -20 66 -53 66s-56 -24 -56 -63v-184c0 -40 26 -63 55 -63c33 0 54 22 54 66z" />
    <glyph glyph-name="c" unicode="c" horiz-adv-x="399" 
d="M370 161c0 -107 -59 -169 -161 -169s-171 63 -171 170v155c0 106 69 172 171 172s161 -64 161 -170v-17h-102v35c0 36 -19 60 -56 60s-57 -23 -57 -63v-188c0 -40 20 -63 57 -63s56 24 56 60v36h102v-18z" />
    <glyph glyph-name="d" unicode="d" horiz-adv-x="431" 
d="M386 0h-91l-6 63c-23 -50 -69 -71 -118 -71c-85 0 -133 62 -133 150v198c0 85 53 149 122 149c49 0 76 -18 105 -52v229h121v-666zM265 146v186c0 39 -22 63 -55 63s-54 -22 -54 -66v-180c0 -44 21 -66 54 -66c29 0 55 23 55 63z" />
    <glyph glyph-name="e" unicode="e" horiz-adv-x="409" 
d="M376 158c0 -100 -64 -166 -167 -166c-102 0 -171 67 -171 167v162c0 100 69 168 171 168c103 0 167 -68 167 -168v-89h-220v-92c0 -34 18 -57 54 -57c38 0 56 23 56 57v35h110v-17zM263 280v61c0 34 -20 57 -54 57c-33 0 -53 -23 -53 -57v-61h107z" />
    <glyph glyph-name="f" unicode="f" horiz-adv-x="294" 
d="M282 379h-76v-379h-122v379h-63v95h63v27c0 101 50 165 159 165h41v-90h-20c-48 0 -62 -23 -62 -62v-40h80v-95z" />
    <glyph glyph-name="g" unicode="g" horiz-adv-x="421" 
d="M426 492c0 -42 -27 -65 -56 -65c-12 0 -23 1 -38 9c30 -26 47 -58 47 -96v-9c0 -86 -65 -146 -169 -146c-10 0 -31 2 -40 4c-26 0 -41 -17 -41 -33c0 -21 21 -32 100 -32c125 0 178 -51 178 -127v-8c0 -84 -69 -150 -190 -150c-110 0 -192 50 -192 120v9
c0 36 25 70 73 84c-44 14 -65 44 -65 76c0 35 35 74 81 80c-45 18 -72 70 -72 126v3c0 85 73 152 168 152c38 0 59 -10 69 -10c48 0 58 23 58 56h86c3 -23 3 -33 3 -43zM266 320v26c0 33 -21 58 -56 58s-56 -25 -56 -58v-26c0 -32 21 -58 56 -58s56 26 56 58zM299 -19v9
c0 31 -20 49 -82 49c-56 0 -83 -19 -83 -50v-9c0 -31 27 -53 83 -53c58 0 82 23 82 54z" />
    <glyph glyph-name="h" unicode="h" horiz-adv-x="439" 
d="M396 0h-121v341c0 33 -20 55 -48 55c-37 0 -60 -51 -60 -79v-317h-122v666h122v-262c23 54 68 84 118 84c70 0 111 -53 111 -133v-355z" />
    <glyph glyph-name="i" unicode="i" horiz-adv-x="212" 
d="M165 547h-119v108h119v-108zM167 0h-122v480h122v-480z" />
    <glyph glyph-name="j" unicode="j" horiz-adv-x="211" 
d="M165 547h-119v108h119v-108zM167 -3c0 -93 -42 -152 -153 -152h-39v86h12c49 0 58 16 58 48v501h122v-483z" />
    <glyph glyph-name="k" unicode="k" horiz-adv-x="421" 
d="M410 0h-119l-78 192l-46 -80v-112h-122v666h122v-403l112 218h119l-108 -201z" />
    <glyph glyph-name="l" unicode="l" horiz-adv-x="212" 
d="M167 0h-122v666h122v-666z" />
    <glyph glyph-name="m" unicode="m" horiz-adv-x="634" 
d="M592 0h-121v345c0 29 -15 49 -41 49c-37 0 -50 -51 -50 -79v-315h-122v347c0 29 -15 49 -40 49c-38 0 -51 -50 -51 -78v-318h-122v480h103l12 -90c19 66 58 98 109 98s85 -34 100 -92c22 67 60 92 112 92c72 0 111 -51 111 -135v-353z" />
    <glyph glyph-name="n" unicode="n" horiz-adv-x="439" 
d="M396 0h-121v341c0 33 -20 55 -48 55c-38 0 -60 -51 -60 -79v-317h-122v480h104l7 -93c23 67 69 101 122 101c78 0 118 -53 118 -133v-355z" />
    <glyph glyph-name="o" unicode="o" horiz-adv-x="419" 
d="M380 162c0 -107 -69 -170 -170 -170c-103 0 -172 63 -172 170v155c0 106 69 172 172 172c101 0 170 -66 170 -172v-155zM263 140v200c0 34 -21 57 -53 57c-34 0 -54 -23 -54 -57v-200c0 -34 20 -57 54 -57c32 0 53 23 53 57z" />
    <glyph glyph-name="p" unicode="p" horiz-adv-x="431" 
d="M392 131c0 -77 -52 -140 -117 -140c-49 0 -77 16 -109 51v-194h-121v632h91l6 -63c24 50 70 71 119 71c85 0 131 -62 131 -150v-207zM274 152v178c0 44 -20 66 -53 66c-29 0 -55 -22 -55 -63v-184c0 -38 22 -63 55 -63s53 22 53 66z" />
    <glyph glyph-name="q" unicode="q" horiz-adv-x="431" 
d="M386 -152h-121v212c-25 -44 -61 -69 -115 -69c-62 0 -112 63 -112 140v207c0 88 47 150 133 150c49 0 95 -21 118 -71l14 63h83v-632zM265 149v184c0 41 -26 63 -55 63c-33 0 -54 -22 -54 -66v-178c0 -44 21 -66 54 -66s55 25 55 63z" />
    <glyph glyph-name="r" unicode="r" horiz-adv-x="313" 
d="M296 364c-96 16 -129 -18 -129 -63v-301h-122v480h101l8 -95c22 85 73 114 142 98v-119z" />
    <glyph glyph-name="s" unicode="s" horiz-adv-x="388" 
d="M362 135c0 -70 -51 -143 -164 -143c-110 0 -169 64 -169 150v17h102v-17c0 -44 25 -62 63 -62c37 0 57 15 57 48c0 42 -40 59 -107 87c-67 27 -107 63 -107 133c0 87 67 141 161 141c102 0 159 -60 159 -145v-8h-100v12c0 31 -18 50 -57 50c-33 0 -51 -14 -51 -42
s23 -43 81 -66c75 -29 132 -68 132 -155z" />
    <glyph glyph-name="t" unicode="t" horiz-adv-x="285" 
d="M274 379h-76v-225c0 -62 7 -110 32 -154h-128c-20 40 -26 83 -26 154v225h-63v95h68v88l117 29v-117h76v-95z" />
    <glyph glyph-name="u" unicode="u" horiz-adv-x="442" 
d="M396 0h-101l-6 85c-24 -61 -72 -93 -125 -93c-79 0 -119 53 -119 133v355h122v-341c0 -34 20 -55 48 -55c37 0 60 50 60 78v318h121v-480z" />
    <glyph glyph-name="v" unicode="v" horiz-adv-x="386" 
d="M380 480l-135 -480h-105l-134 480h118l54 -238l17 -90l18 90l52 238h115z" />
    <glyph glyph-name="w" unicode="w" horiz-adv-x="564" 
d="M560 480l-119 -480h-96l-46 199l-16 85l-17 -85l-46 -199h-96l-118 480h117l40 -238l14 -90l15 90l46 238h99l41 -238l15 -90l14 90l45 238h108z" />
    <glyph glyph-name="x" unicode="x" horiz-adv-x="398" 
d="M389 0h-122l-68 155l-68 -155h-121l123 239l-123 241h122l69 -155l67 155h121l-123 -232z" />
    <glyph glyph-name="y" unicode="y" horiz-adv-x="387" 
d="M382 480l-136 -482c-25 -92 -53 -153 -164 -153h-39v87h26c45 0 54 12 64 49l8 28l-133 471h118l54 -238l18 -90l17 90l52 238h115z" />
    <glyph glyph-name="z" unicode="z" horiz-adv-x="359" 
d="M338 420l-182 -317h176v-103h-310v60l185 321h-175v99h306v-60z" />
    <glyph glyph-name="braceleft" unicode="{" horiz-adv-x="349" 
d="M295 -167h-46c-110 0 -161 66 -161 144c0 107 86 177 86 235c0 38 -18 54 -75 54h-33v65h33c57 0 75 16 75 53c0 59 -86 129 -86 235c0 79 51 145 161 145h46v-85h-30c-45 0 -63 -23 -63 -58c0 -80 60 -145 60 -204c0 -60 -27 -97 -104 -113c77 -15 104 -52 104 -112
c0 -59 -60 -137 -60 -216c0 -35 18 -58 63 -58h30v-85z" />
    <glyph glyph-name="bar" unicode="|" horiz-adv-x="172" 
d="M123 -64h-75v793h75v-793z" />
    <glyph glyph-name="braceright" unicode="}" horiz-adv-x="349" 
d="M283 266h-33c-57 0 -75 -16 -75 -54c0 -58 86 -128 86 -235c0 -78 -51 -144 -161 -144h-46v85h31c45 0 62 23 62 58c0 79 -60 157 -60 216c0 60 28 97 104 112c-76 16 -104 53 -104 113c0 59 60 124 60 204c0 35 -17 58 -62 58h-31v85h46c110 0 161 -66 161 -145
c0 -106 -86 -176 -86 -235c0 -37 18 -53 75 -53h33v-65z" />
    <glyph glyph-name="asciitilde" unicode="~" horiz-adv-x="326" 
d="M312 352c0 -50 -26 -85 -84 -85c-54 0 -99 51 -129 51c-16 0 -23 -10 -23 -25v-24h-46c-10 13 -15 26 -15 44c0 50 26 85 83 85c55 0 100 -50 129 -50c17 0 24 9 24 25v24h46c9 -13 15 -27 15 -45z" />
    <glyph glyph-name="uni0080" horiz-adv-x="478" 
d="M474 0h-143l-28 132h-138l-28 -132h-134l156 666h160zM284 238l-47 243l-51 -243h98zM358 727h-95v102h95v-102zM206 727h-95v102h95v-102z" />
    <glyph glyph-name="uni0081" horiz-adv-x="478" 
d="M284 238l-47 243l-51 -243h98zM284 734c0 30 -17 50 -46 50s-46 -20 -46 -50c0 -29 17 -50 46 -50s46 21 46 50zM182 666c-23 14 -38 40 -38 68c0 48 38 91 94 91c55 0 94 -43 94 -91c0 -28 -14 -54 -37 -68h24l155 -666h-143l-28 132h-138l-28 -132h-134l156 666h23z
" />
    <glyph glyph-name="uni0082" horiz-adv-x="504" 
d="M217 -13c-113 18 -176 101 -176 202v288c0 115 82 206 223 206c139 0 210 -83 210 -194v-65h-128v62c0 46 -27 76 -80 76s-80 -31 -80 -74v-311c0 -42 27 -73 80 -73s80 30 80 76v62h128v-65c0 -109 -70 -192 -205 -194c1 0 -43 -57 -43 -57c10 7 28 8 41 8
c59 0 93 -40 93 -96c0 -53 -44 -94 -103 -94c-20 0 -37 6 -43 11v37h20c29 0 44 12 44 36v31c0 25 -15 38 -44 38c-16 0 -32 -8 -48 -25l-36 26z" />
    <glyph glyph-name="uni0083" horiz-adv-x="447" 
d="M419 0h-371v666h371v-120h-228v-146h157v-108h-157v-167h228v-125zM341 849l-89 -143h-68l40 143h117z" />
    <glyph glyph-name="uni0084" horiz-adv-x="542" 
d="M493 0h-110l-147 267l-57 109v-376h-131v666h119l143 -273l54 -109v382h129v-666zM415 807c0 -50 -26 -85 -84 -85c-54 0 -99 51 -129 51c-16 0 -23 -10 -23 -25v-24h-46c-10 13 -15 26 -15 44c0 50 26 85 83 85c55 0 100 -50 129 -50c17 0 24 9 24 25v24h46
c9 -13 15 -27 15 -45z" />
    <glyph glyph-name="uni0085" unicode="&#x85;" 
d="M479 187c0 -119 -81 -204 -219 -204c-137 0 -219 85 -219 204v292c0 118 82 203 219 203c138 0 219 -85 219 -203v-292zM335 179v308c0 45 -27 75 -75 75c-47 0 -74 -30 -74 -75v-308c0 -45 27 -75 74 -75c48 0 75 30 75 75zM386 727h-95v102h95v-102zM234 727h-95v102
h95v-102z" />
    <glyph glyph-name="uni0086" horiz-adv-x="527" 
d="M479 170c0 -111 -87 -187 -214 -187c-126 0 -218 76 -218 187v496h145v-494c0 -45 26 -70 73 -70c48 0 75 25 75 70v494h139v-496zM391 727h-95v102h95v-102zM239 727h-95v102h95v-102z" />
    <glyph glyph-name="uni0087" horiz-adv-x="417" 
d="M395 -8h-28c-47 0 -81 20 -91 69c-28 -46 -72 -69 -128 -69c-71 0 -124 47 -124 129v6c0 104 93 137 225 159v65c0 28 -16 45 -48 45c-34 0 -46 -16 -46 -48v-28h-111v23c0 82 49 146 162 146c114 0 161 -69 161 -161v-227c0 -18 9 -26 28 -26v-83zM249 130v92
c-76 -11 -110 -32 -110 -80v-18c0 -28 17 -48 47 -48c34 0 63 22 63 54zM326 689l-89 -143h-68l40 143h117z" />
    <glyph glyph-name="uni0088" horiz-adv-x="417" 
d="M395 -8h-28c-47 0 -81 20 -91 69c-28 -46 -72 -69 -128 -69c-71 0 -124 47 -124 129v6c0 104 93 137 225 159v65c0 28 -16 45 -48 45c-34 0 -46 -16 -46 -48v-28h-111v23c0 82 49 146 162 146c114 0 161 -69 161 -161v-227c0 -18 9 -26 28 -26v-83zM249 130v92
c-76 -11 -110 -32 -110 -80v-18c0 -28 17 -48 47 -48c34 0 63 22 63 54zM241 546h-67l-89 143h116z" />
    <glyph glyph-name="uni0089" horiz-adv-x="417" 
d="M395 -8h-28c-47 0 -81 20 -91 69c-28 -46 -72 -69 -128 -69c-71 0 -124 47 -124 129v6c0 104 93 137 225 159v65c0 28 -16 45 -48 45c-34 0 -46 -16 -46 -48v-28h-111v23c0 82 49 146 162 146c114 0 161 -69 161 -161v-227c0 -18 9 -26 28 -26v-83zM249 130v92
c-76 -11 -110 -32 -110 -80v-18c0 -28 17 -48 47 -48c34 0 63 22 63 54zM351 558c-16 -5 -35 -8 -50 -8c-46 0 -81 32 -94 83c-13 -51 -49 -83 -96 -83c-14 0 -28 3 -43 8v31c41 0 73 31 91 97h99c19 -66 51 -97 93 -97v-31z" />
    <glyph glyph-name="uni008A" horiz-adv-x="417" 
d="M395 -8h-28c-47 0 -81 20 -91 69c-28 -46 -72 -69 -128 -69c-71 0 -124 47 -124 129v6c0 104 93 137 225 159v65c0 28 -16 45 -48 45c-34 0 -46 -16 -46 -48v-28h-111v23c0 82 49 146 162 146c114 0 161 -69 161 -161v-227c0 -18 9 -26 28 -26v-83zM249 130v92
c-76 -11 -110 -32 -110 -80v-18c0 -28 17 -48 47 -48c34 0 63 22 63 54zM326 567h-95v102h95v-102zM174 567h-95v102h95v-102z" />
    <glyph glyph-name="uni008B" horiz-adv-x="417" 
d="M395 -8h-28c-47 0 -81 20 -91 69c-28 -46 -72 -69 -128 -69c-71 0 -124 47 -124 129v6c0 104 93 137 225 159v65c0 28 -16 45 -48 45c-34 0 -46 -16 -46 -48v-28h-111v23c0 82 49 146 162 146c114 0 161 -69 161 -161v-227c0 -18 9 -26 28 -26v-83zM249 130v92
c-76 -11 -110 -32 -110 -80v-18c0 -28 17 -48 47 -48c34 0 63 22 63 54zM349 647c0 -50 -26 -85 -84 -85c-54 0 -99 51 -129 51c-16 0 -23 -10 -23 -25v-24h-46c-10 13 -15 26 -15 44c0 50 26 85 83 85c55 0 100 -50 129 -50c17 0 24 9 24 25v24h46c9 -13 15 -27 15 -45z
" />
    <glyph glyph-name="uni008C" horiz-adv-x="417" 
d="M395 -8h-28c-47 0 -81 20 -91 69c-28 -46 -72 -69 -128 -69c-71 0 -124 47 -124 129v6c0 104 93 137 225 159v65c0 28 -16 45 -48 45c-34 0 -46 -16 -46 -48v-28h-111v23c0 82 49 146 162 146c114 0 161 -69 161 -161v-227c0 -18 9 -26 28 -26v-83zM249 130v92
c-76 -11 -110 -32 -110 -80v-18c0 -28 17 -48 47 -48c34 0 63 22 63 54zM298 637c0 -48 -39 -91 -94 -91c-56 0 -94 43 -94 91s38 91 94 91c55 0 94 -43 94 -91zM250 637c0 30 -17 50 -46 50s-46 -20 -46 -50c0 -29 17 -50 46 -50s46 21 46 50z" />
    <glyph glyph-name="uni008D" horiz-adv-x="399" 
d="M163 -4c-76 17 -125 76 -125 166v155c0 106 69 172 171 172s161 -64 161 -170v-17h-102v35c0 36 -19 60 -56 60s-57 -23 -57 -63v-188c0 -40 20 -63 57 -63s56 24 56 60v36h102v-18c0 -104 -56 -166 -155 -169l-51 -66c10 7 28 8 41 8c59 0 94 -40 94 -96
c0 -53 -45 -94 -104 -94c-20 0 -37 6 -43 11v37h20c29 0 45 12 45 36v31c0 25 -16 38 -45 38c-16 0 -31 -8 -47 -25l-36 26z" />
    <glyph glyph-name="uni008E" horiz-adv-x="409" 
d="M376 158c0 -100 -64 -166 -167 -166c-102 0 -171 67 -171 167v162c0 100 69 168 171 168c103 0 167 -68 167 -168v-89h-220v-92c0 -34 18 -57 54 -57c38 0 56 23 56 57v35h110v-17zM263 280v61c0 34 -20 57 -54 57c-33 0 -53 -23 -53 -57v-61h107zM333 689l-89 -143h-68
l40 143h117z" />
    <glyph glyph-name="uni008F" horiz-adv-x="409" 
d="M376 158c0 -100 -64 -166 -167 -166c-102 0 -171 67 -171 167v162c0 100 69 168 171 168c103 0 167 -68 167 -168v-89h-220v-92c0 -34 18 -57 54 -57c38 0 56 23 56 57v35h110v-17zM263 280v61c0 34 -20 57 -54 57c-33 0 -53 -23 -53 -57v-61h107zM244 546h-67l-89 143
h116z" />
    <glyph glyph-name="uni0090" horiz-adv-x="409" 
d="M376 158c0 -100 -64 -166 -167 -166c-102 0 -171 67 -171 167v162c0 100 69 168 171 168c103 0 167 -68 167 -168v-89h-220v-92c0 -34 18 -57 54 -57c38 0 56 23 56 57v35h110v-17zM263 280v61c0 34 -20 57 -54 57c-33 0 -53 -23 -53 -57v-61h107zM348 558
c-16 -5 -35 -8 -50 -8c-46 0 -81 32 -94 83c-13 -51 -49 -83 -96 -83c-14 0 -28 3 -43 8v31c41 0 73 31 91 97h99c19 -66 51 -97 93 -97v-31z" />
    <glyph glyph-name="uni0091" horiz-adv-x="409" 
d="M376 158c0 -100 -64 -166 -167 -166c-102 0 -171 67 -171 167v162c0 100 69 168 171 168c103 0 167 -68 167 -168v-89h-220v-92c0 -34 18 -57 54 -57c38 0 56 23 56 57v35h110v-17zM263 280v61c0 34 -20 57 -54 57c-33 0 -53 -23 -53 -57v-61h107zM330 567h-95v102h95
v-102zM178 567h-95v102h95v-102z" />
    <glyph glyph-name="uni0092" horiz-adv-x="212" 
d="M167 0h-122v480h122v-480zM229 689l-89 -143h-68l40 143h117z" />
    <glyph glyph-name="uni0093" horiz-adv-x="212" 
d="M167 0h-122v480h122v-480zM137 546h-67l-89 143h116z" />
    <glyph glyph-name="uni0094" horiz-adv-x="212" 
d="M167 0h-122v480h122v-480zM251 558c-16 -5 -35 -8 -50 -8c-46 0 -81 32 -94 83c-13 -51 -49 -83 -96 -83c-14 0 -28 3 -43 8v31c41 0 73 31 91 97h99c19 -66 51 -97 93 -97v-31z" />
    <glyph glyph-name="uni0095" horiz-adv-x="212" 
d="M167 0h-122v480h122v-480zM229 567h-95v102h95v-102zM77 567h-95v102h95v-102z" />
    <glyph glyph-name="uni0096" horiz-adv-x="439" 
d="M396 0h-121v341c0 33 -20 55 -48 55c-38 0 -60 -51 -60 -79v-317h-122v480h104l7 -93c23 67 69 101 122 101c78 0 118 -53 118 -133v-355zM359 647c0 -50 -26 -85 -84 -85c-54 0 -99 51 -129 51c-16 0 -23 -10 -23 -25v-24h-46c-10 13 -15 26 -15 44c0 50 26 85 83 85
c55 0 100 -50 129 -50c17 0 24 9 24 25v24h46c9 -13 15 -27 15 -45z" />
    <glyph glyph-name="uni0097" horiz-adv-x="420" 
d="M380 162c0 -107 -69 -170 -170 -170c-103 0 -172 63 -172 170v155c0 106 69 172 172 172c101 0 170 -66 170 -172v-155zM263 140v200c0 34 -21 57 -53 57c-34 0 -54 -23 -54 -57v-200c0 -34 20 -57 54 -57c32 0 53 23 53 57zM335 689l-89 -143h-68l40 143h117z" />
    <glyph glyph-name="uni0098" horiz-adv-x="420" 
d="M380 162c0 -107 -69 -170 -170 -170c-103 0 -172 63 -172 170v155c0 106 69 172 172 172c101 0 170 -66 170 -172v-155zM263 140v200c0 34 -21 57 -53 57c-34 0 -54 -23 -54 -57v-200c0 -34 20 -57 54 -57c32 0 53 23 53 57zM243 546h-67l-89 143h116z" />
    <glyph glyph-name="uni0099" horiz-adv-x="420" 
d="M380 162c0 -107 -69 -170 -170 -170c-103 0 -172 63 -172 170v155c0 106 69 172 172 172c101 0 170 -66 170 -172v-155zM263 140v200c0 34 -21 57 -53 57c-34 0 -54 -23 -54 -57v-200c0 -34 20 -57 54 -57c32 0 53 23 53 57zM356 558c-16 -5 -35 -8 -50 -8
c-46 0 -81 32 -94 83c-13 -51 -49 -83 -96 -83c-14 0 -28 3 -43 8v31c41 0 73 31 91 97h99c19 -66 51 -97 93 -97v-31z" />
    <glyph glyph-name="uni009A" horiz-adv-x="420" 
d="M380 162c0 -107 -69 -170 -170 -170c-103 0 -172 63 -172 170v155c0 106 69 172 172 172c101 0 170 -66 170 -172v-155zM263 140v200c0 34 -21 57 -53 57c-34 0 -54 -23 -54 -57v-200c0 -34 20 -57 54 -57c32 0 53 23 53 57zM334 567h-95v102h95v-102zM182 567h-95v102
h95v-102z" />
    <glyph glyph-name="uni009B" horiz-adv-x="420" 
d="M380 162c0 -107 -69 -170 -170 -170c-103 0 -172 63 -172 170v155c0 106 69 172 172 172c101 0 170 -66 170 -172v-155zM263 140v200c0 34 -21 57 -53 57c-34 0 -54 -23 -54 -57v-200c0 -34 20 -57 54 -57c32 0 53 23 53 57zM354 647c0 -50 -26 -85 -84 -85
c-54 0 -99 51 -129 51c-16 0 -23 -10 -23 -25v-24h-46c-10 13 -15 26 -15 44c0 50 26 85 83 85c55 0 100 -50 129 -50c17 0 24 9 24 25v24h46c9 -13 15 -27 15 -45z" />
    <glyph glyph-name="uni009C" horiz-adv-x="442" 
d="M396 0h-101l-6 85c-24 -61 -72 -93 -125 -93c-79 0 -119 53 -119 133v355h122v-341c0 -34 20 -55 48 -55c37 0 60 50 60 78v318h121v-480zM343 689l-89 -143h-68l40 143h117z" />
    <glyph glyph-name="uni009D" horiz-adv-x="442" 
d="M396 0h-101l-6 85c-24 -61 -72 -93 -125 -93c-79 0 -119 53 -119 133v355h122v-341c0 -34 20 -55 48 -55c37 0 60 50 60 78v318h121v-480zM255 546h-67l-89 143h116z" />
    <glyph glyph-name="uni009E" horiz-adv-x="442" 
d="M396 0h-101l-6 85c-24 -61 -72 -93 -125 -93c-79 0 -119 53 -119 133v355h122v-341c0 -34 20 -55 48 -55c37 0 60 50 60 78v318h121v-480zM365 558c-16 -5 -35 -8 -50 -8c-46 0 -81 32 -94 83c-13 -51 -49 -83 -96 -83c-14 0 -28 3 -43 8v31c41 0 73 31 91 97h99
c19 -66 51 -97 93 -97v-31z" />
    <glyph glyph-name="uni009F" horiz-adv-x="442" 
d="M396 0h-101l-6 85c-24 -61 -72 -93 -125 -93c-79 0 -119 53 -119 133v355h122v-341c0 -34 20 -55 48 -55c37 0 60 50 60 78v318h121v-480zM346 567h-95v102h95v-102zM194 567h-95v102h95v-102z" />
    <glyph glyph-name="uni00A0" unicode="&#xa0;" horiz-adv-x="424" 
d="M409 413c0 -10 -9 -14 -16 -14c-22 0 -116 4 -154 14c10 -37 14 -149 14 -171c0 -148 -4 -241 -11 -298c0 -7 -3 -16 -13 -16h-34c-10 0 -14 9 -14 16c-6 57 -10 150 -10 298c0 22 4 134 13 171c-37 -10 -132 -14 -153 -14c-7 0 -16 4 -16 14v55c0 9 9 13 16 13
c25 0 113 -3 153 -13c-10 37 -13 160 -13 182c0 7 4 16 13 16h55c10 0 14 -9 14 -16c0 -22 -4 -145 -13 -182c39 10 127 13 153 13c7 0 16 -4 16 -13v-55z" />
    <glyph glyph-name="exclamdown" unicode="&#xa1;" horiz-adv-x="316" 
d="M297 548c0 -71 -56 -135 -139 -135s-139 64 -139 135s56 135 139 135s139 -64 139 -135zM226 548c0 43 -25 74 -68 74s-68 -31 -68 -74c0 -44 25 -75 68 -75s68 31 68 75z" />
    <glyph glyph-name="cent" unicode="&#xa2;" horiz-adv-x="419" 
d="M177 578v88h87v-90c71 -17 115 -75 115 -160v-21h-105v38c0 33 -18 56 -54 56c-34 0 -53 -23 -53 -56v-200c0 -34 19 -56 53 -56c36 0 54 22 54 56v38h105v-22c0 -85 -44 -143 -115 -159v-90h-87v88c-77 15 -130 73 -130 161v167c0 88 53 147 130 162z" />
    <glyph glyph-name="sterling" unicode="&#xa3;" horiz-adv-x="551" 
d="M527 140c0 -95 -45 -157 -148 -157c-61 0 -119 21 -157 55c-27 -34 -66 -55 -115 -55c-65 0 -103 43 -103 93c0 59 42 104 121 104c29 0 56 -8 77 -19c13 16 20 39 20 60c0 19 -7 47 -19 64h-143v88h99c-17 30 -35 77 -35 123c0 94 66 187 200 187
c127 0 182 -92 182 -172v-47h-117v28c0 45 -22 75 -66 75s-65 -27 -65 -74c0 -42 18 -80 41 -120h151v-88h-121c4 -18 7 -36 7 -50c0 -49 -25 -85 -58 -117c24 -16 54 -29 79 -29c45 0 60 26 60 65v49h110v-63zM166 88c-19 17 -35 22 -49 22c-20 0 -31 -11 -31 -26
c0 -11 10 -24 32 -24c17 0 37 10 48 28z" />
    <glyph glyph-name="Euro" unicode="&#x20ac;" horiz-adv-x="505" 
d="M470 252c0 -53 -21 -93 -66 -121c37 -28 61 -63 61 -117c0 -88 -67 -170 -208 -170c-136 0 -223 67 -223 169v24h126v-26c0 -38 33 -66 89 -66c60 0 86 22 86 62c0 88 -288 112 -288 269c0 49 29 91 67 116c-35 27 -61 64 -61 116c0 93 63 175 200 175
c136 0 205 -79 205 -172v-15h-125v22c0 28 -14 60 -75 60c-52 0 -70 -25 -70 -57c0 -86 282 -114 282 -269zM357 223c0 32 -40 70 -165 128c-21 -6 -33 -25 -33 -45c0 -31 29 -60 165 -124c20 5 33 20 33 41z" />
    <glyph glyph-name="yen" unicode="&#xa5;" horiz-adv-x="320" 
d="M289 333c0 -82 -56 -131 -129 -131c-74 0 -130 49 -130 131s56 131 130 131c73 0 129 -49 129 -131z" />
    <glyph glyph-name="Scaron" unicode="&#x160;" horiz-adv-x="610" 
d="M557 -150h-80v723h-79v-723h-81v341h-43c-132 0 -234 91 -234 229v16c0 139 102 230 234 230h283v-816zM317 285v288h-21c-46 0 -73 -32 -73 -83v-123c0 -50 27 -82 73 -82h21z" />
    <glyph glyph-name="section" unicode="&#xa7;" horiz-adv-x="439" 
d="M401 134c0 -92 -58 -142 -142 -142c-17 0 -36 5 -46 13v59c49 0 67 23 67 64v128c0 37 -16 57 -64 57v83c50 0 70 23 70 61v53c0 41 -19 65 -58 65s-58 -24 -58 -67v-508h-122v490c0 105 60 176 173 176c117 0 175 -68 175 -169v-22c0 -53 -22 -101 -66 -120
c54 -22 71 -59 71 -121v-100z" />
    <glyph glyph-name="scaron" unicode="&#x161;" horiz-adv-x="749" 
d="M724 333c0 -193 -149 -350 -350 -350c-200 0 -349 157 -349 350s149 350 349 350c201 0 350 -157 350 -350zM669 333c0 166 -120 300 -295 300c-174 0 -294 -134 -294 -300s120 -300 294 -300c175 0 295 134 295 300zM512 179h-16c-46 0 -62 12 -62 52v33
c0 27 -12 46 -42 46h-60v-127h-60v304h127c69 0 94 -34 94 -86v-2c0 -39 -14 -61 -53 -68c38 -4 55 -36 55 -66v-29c0 -10 5 -14 17 -14v-43zM432 395v7c0 21 -9 38 -38 38h-62v-89h56c29 0 44 15 44 44z" />
    <glyph glyph-name="copyright" unicode="&#xa9;" horiz-adv-x="749" 
d="M724 333c0 -193 -149 -350 -350 -350c-200 0 -349 157 -349 350s149 350 349 350c201 0 350 -157 350 -350zM669 333c0 166 -120 300 -295 300c-174 0 -294 -134 -294 -300s120 -300 294 -300c175 0 295 134 295 300zM493 273c0 -60 -43 -101 -113 -101
c-71 0 -118 44 -118 104v114c0 60 47 104 118 104c70 0 113 -41 113 -101v-21h-53v20c0 31 -20 55 -59 55s-58 -26 -58 -58v-112c0 -31 19 -58 58 -58s59 24 59 55v20h53v-21z" />
    <glyph glyph-name="ordfeminine" unicode="&#xaa;" horiz-adv-x="675" 
d="M626 362h-54v247l-22 -86l-52 -161h-54l-50 161l-22 86v-247h-54v304h81l53 -169l20 -80l21 80l51 169h82v-304zM262 615h-89v-253h-60v253h-89v51h238v-51z" />
    <glyph glyph-name="guillemotleft" unicode="&#xab;" horiz-adv-x="208" 
d="M207 689l-89 -143h-68l40 143h117z" />
    <glyph glyph-name="logicalnot" unicode="&#xac;" horiz-adv-x="279" 
d="M263 567h-95v102h95v-102zM111 567h-95v102h95v-102z" />
    <glyph glyph-name="uni00AD" unicode="&#xad;" horiz-adv-x="507" 
d="M483 0h-459v480h459v-480z" />
    <glyph glyph-name="registered" unicode="&#xae;" horiz-adv-x="720" 
d="M692 0h-371v132h-129l-50 -132h-140l256 666h434v-120h-228v-145h157v-109h-157v-167h228v-125zM321 239v254l-92 -254h92z" />
    <glyph glyph-name="macron" unicode="&#xaf;" 
d="M502 661l-48 -78c16 -30 25 -65 25 -104v-292c0 -119 -81 -204 -219 -204c-61 0 -112 17 -149 47l-39 -63l-54 38l48 78c-16 29 -25 65 -25 104v292c0 118 82 203 219 203c62 0 112 -17 149 -46l39 63zM332 512c-8 31 -33 50 -72 50c-47 0 -74 -30 -74 -75v-211zM335 179
v212l-146 -236c8 -31 33 -51 71 -51c48 0 75 30 75 75z" />
    <glyph glyph-name="plusminus" unicode="&#xb1;" 
d="M496 0h-472v492h472v-492zM445 49v394h-370v-394h370z" />
    <glyph glyph-name="uni00B2" unicode="&#xb2;" horiz-adv-x="380" 
d="M325 94l-287 145v13l287 145v-303z" />
    <glyph glyph-name="uni00B3" unicode="&#xb3;" horiz-adv-x="380" 
d="M342 239l-287 -145v303l287 -145v-13z" />
    <glyph glyph-name="Zcaron" unicode="&#x17d;" horiz-adv-x="522" 
d="M325 277v-65h143v-91h-143v-121h-132v121h-141v91h141v65h-141v91h106l-127 298h139l95 -251l91 251h136l-132 -298h108v-91h-143z" />
    <glyph glyph-name="uni00B9" unicode="&#xb9;" horiz-adv-x="749" 
d="M724 333c0 -193 -149 -350 -350 -350c-200 0 -349 157 -349 350s149 350 349 350c201 0 350 -157 350 -350zM669 333c0 166 -120 300 -295 300c-174 0 -294 -134 -294 -300s120 -300 294 -300c175 0 295 134 295 300zM503 379c0 -45 -25 -81 -94 -81h-67v-115h-60v304
h127c69 0 94 -32 94 -77v-31zM442 379v31c0 19 -10 32 -39 32h-61v-98h61c29 0 39 16 39 35z" />
    <glyph glyph-name="guillemotright" unicode="&#xbb;" horiz-adv-x="352" 
d="M333 314h-33c-37 0 -63 15 -71 51c-22 -34 -57 -51 -101 -51c-56 0 -98 35 -98 96v4c0 78 73 102 178 118v49c0 20 -13 33 -38 33c-27 0 -36 -12 -36 -36v-21h-87v17c0 61 39 108 127 108c89 0 127 -50 127 -119v-168c0 -13 5 -19 32 -19v-62zM208 417v68
c-60 -8 -87 -24 -87 -60v-13c0 -20 13 -35 38 -35c26 0 49 15 49 40z" />
    <glyph glyph-name="OE" unicode="&#x152;" horiz-adv-x="320" 
d="M294 439c0 -78 -57 -125 -134 -125s-134 47 -134 125v118c0 78 57 125 134 125s134 -47 134 -125v-118zM202 421v154c0 24 -18 41 -42 41c-25 0 -42 -17 -42 -41v-154c0 -24 17 -41 42 -41c24 0 42 17 42 41z" />
    <glyph glyph-name="oe" unicode="&#x153;" horiz-adv-x="588" 
d="M578 576h-20c-48 0 -62 -23 -62 -62v-40h80v-95h-76v-379h-122v379h-63v95h63v27c0 101 50 165 159 165h41v-90zM284 576h-20c-48 0 -62 -23 -62 -62v-40h80v-95h-76v-379h-122v379h-63v95h63v27c0 101 50 165 159 165h41v-90z" />
    <glyph glyph-name="Ydieresis" unicode="&#x178;" horiz-adv-x="631" 
d="M598 158c0 -100 -61 -166 -152 -166c-56 0 -111 20 -139 65c-30 -41 -82 -65 -147 -65c-83 0 -135 52 -135 129v6c0 104 93 137 225 159v58c0 29 -14 49 -49 49c-33 0 -49 -16 -49 -48v-25h-106v23c0 82 50 146 148 146c58 0 97 -25 121 -63c26 38 76 63 131 63
c95 0 152 -68 152 -168v-89h-220v-89c0 -34 18 -57 55 -57s56 23 56 57v32h109v-17zM486 280v58c0 34 -21 57 -54 57c-34 0 -54 -23 -54 -57v-58h108zM250 133v89c-76 -11 -110 -32 -110 -80v-15c0 -28 17 -48 47 -48c34 0 63 22 63 54z" />
    <glyph glyph-name="questiondown" unicode="&#xbf;" horiz-adv-x="419" 
d="M405 482l-48 -70c15 -26 23 -59 23 -95v-155c0 -107 -69 -170 -170 -170c-46 0 -86 13 -115 36c0 1 -41 -60 -41 -60l-39 31l46 68c-15 26 -23 58 -23 95v155c0 106 69 172 172 172c45 0 84 -13 113 -38l42 61zM260 359c-6 23 -24 38 -50 38c-34 0 -54 -23 -54 -57v-134z
M263 140v134l-105 -153c7 -23 25 -38 52 -38c32 0 53 23 53 57z" />
    <glyph glyph-name="Agrave" unicode="&#xc0;" horiz-adv-x="389" 
d="M-8 -27c0 84 37 135 114 192c49 37 59 66 59 112h90c0 -88 -22 -122 -91 -195c-29 -31 -45 -59 -45 -98c0 -53 23 -74 68 -74c48 0 69 30 69 82v50h117v-64c0 -99 -58 -181 -184 -181c-142 0 -197 86 -197 176zM159 480h107v-123h-107v123z" />
    <glyph glyph-name="Aacute" unicode="&#xc1;" horiz-adv-x="219" 
d="M163 357h-108v123h108v-123zM172 -186h-125v289l43 182h39l43 -182v-289z" />
    <glyph glyph-name="Atilde" unicode="&#xc3;" horiz-adv-x="800" 
d="M755 0h-122v666h122v-666zM578 576h-20c-48 0 -62 -23 -62 -62v-40h80v-95h-76v-379h-122v379h-63v95h63v27c0 101 50 165 159 165h41v-90zM284 576h-20c-48 0 -62 -23 -62 -62v-40h80v-95h-76v-379h-122v379h-63v95h63v27c0 101 50 165 159 165h41v-90z" />
    <glyph glyph-name="Adieresis" unicode="&#xc4;" horiz-adv-x="365" 
d="M247 396h88v-88h-88v-159c0 -102 -48 -166 -159 -166h-39v95h13c49 0 61 16 61 51v179h-85v88h85v105c0 102 49 165 159 165h39v-95h-13c-49 0 -61 -16 -61 -51v-124z" />
    <glyph glyph-name="Aring" unicode="&#xc5;" horiz-adv-x="800" 
d="M753 547h-119v108h119v-108zM755 0h-122v480h122v-480zM578 576h-20c-48 0 -62 -23 -62 -62v-40h80v-95h-76v-379h-122v379h-63v95h63v27c0 101 50 165 159 165h41v-90zM284 576h-20c-48 0 -62 -23 -62 -62v-40h80v-95h-76v-379h-122v379h-63v95h63v27
c0 101 50 165 159 165h41v-90z" />
    <glyph glyph-name="Ccedilla" unicode="&#xc7;" horiz-adv-x="476" 
d="M234 0h-57c-18 69 -76 139 -151 156v75c75 17 133 88 151 156h57c0 -70 -36 -156 -91 -194c55 -37 91 -122 91 -193zM442 0h-56c-18 69 -77 139 -151 156v75c74 17 133 88 151 156h56c0 -70 -36 -156 -91 -194c55 -37 91 -122 91 -193z" />
    <glyph glyph-name="Egrave" unicode="&#xc8;" horiz-adv-x="475" 
d="M240 156c-74 -17 -133 -87 -151 -156h-56c0 71 36 156 91 193c-55 38 -91 124 -91 194h56c18 -68 77 -139 151 -156v-75zM449 156c-75 -17 -133 -87 -151 -156h-57c0 71 36 156 91 193c-55 38 -91 124 -91 194h57c18 -68 76 -139 151 -156v-75z" />
    <glyph glyph-name="Eacute" unicode="&#xc9;" horiz-adv-x="595" 
d="M157 0h-110v136h110v-136zM353 0h-111v136h111v-136zM548 0h-111v136h111v-136z" />
    <glyph glyph-name="Ecircumflex" unicode="&#xca;" horiz-adv-x="87" 
 />
    <glyph glyph-name="Edieresis" unicode="&#xcb;" horiz-adv-x="478" 
d="M474 0h-143l-28 132h-138l-28 -132h-134l156 666h160zM284 238l-47 243l-51 -243h98zM269 706h-67l-89 143h116z" />
    <glyph glyph-name="Igrave" unicode="&#xcc;" horiz-adv-x="478" 
d="M474 0h-143l-28 132h-138l-28 -132h-134l156 666h160zM284 238l-47 243l-51 -243h98zM381 807c0 -50 -26 -85 -84 -85c-54 0 -99 51 -129 51c-16 0 -23 -10 -23 -25v-24h-46c-10 13 -15 26 -15 44c0 50 26 85 83 85c55 0 100 -50 129 -50c17 0 24 9 24 25v24h46
c9 -13 15 -27 15 -45z" />
    <glyph glyph-name="Iacute" unicode="&#xcd;" 
d="M479 187c0 -119 -81 -204 -219 -204c-137 0 -219 85 -219 204v292c0 118 82 203 219 203c138 0 219 -85 219 -203v-292zM335 179v308c0 45 -27 75 -75 75c-47 0 -74 -30 -74 -75v-308c0 -45 27 -75 74 -75c48 0 75 30 75 75zM403 807c0 -50 -26 -85 -84 -85
c-54 0 -99 51 -129 51c-16 0 -23 -10 -23 -25v-24h-46c-10 13 -15 26 -15 44c0 50 26 85 83 85c55 0 100 -50 129 -50c17 0 24 9 24 25v24h46c9 -13 15 -27 15 -45z" />
    <glyph glyph-name="Icircumflex" unicode="&#xce;" horiz-adv-x="733" 
d="M705 0h-442c-142 0 -220 81 -220 200v258c0 119 78 208 220 208h442v-120h-228v-145h157v-109h-157v-167h228v-125zM334 118v430h-62c-59 0 -86 -30 -86 -91v-248c0 -61 27 -91 86 -91h62z" />
    <glyph glyph-name="Idieresis" unicode="&#xcf;" horiz-adv-x="645" 
d="M612 158c0 -100 -58 -166 -152 -166c-57 0 -107 24 -133 64c-25 -40 -76 -64 -133 -64c-93 0 -156 63 -156 170v155c0 106 63 172 156 172c57 0 108 -24 134 -65c25 40 76 65 132 65c94 0 152 -68 152 -168v-89h-220v-89c0 -34 18 -57 55 -57s55 23 55 57v32h110v-17z
M500 280v58c0 34 -21 57 -54 57c-34 0 -54 -23 -54 -57v-58h108zM263 143v194c0 34 -21 57 -54 57s-54 -23 -54 -57v-194c0 -34 21 -57 54 -57s54 23 54 57z" />
    <glyph glyph-name="Eth" unicode="&#xd0;" horiz-adv-x="500" 
d="M438 255h-375v93h375v-93z" />
    <glyph glyph-name="Ntilde" unicode="&#xd1;" horiz-adv-x="750" 
d="M688 255h-625v93h625v-93z" />
    <glyph glyph-name="Ograve" unicode="&#xd2;" horiz-adv-x="333" 
d="M37 550c0 67 43 118 122 118v-33c-37 0 -62 -24 -62 -71h51v-136h-111v122zM185 550c0 67 42 118 122 118v-33c-38 0 -63 -24 -63 -71h51v-136h-110v122z" />
    <glyph glyph-name="Oacute" unicode="&#xd3;" horiz-adv-x="333" 
d="M295 544c0 -67 -42 -118 -122 -118v33c38 0 63 24 63 71h-51v136h110v-122zM148 544c0 -67 -43 -118 -122 -118v33c37 0 62 24 62 71h-51v136h111v-122z" />
    <glyph glyph-name="Ocircumflex" unicode="&#xd4;" horiz-adv-x="185" 
d="M37 550c0 67 43 118 122 118v-33c-37 0 -62 -24 -62 -71h51v-136h-111v122z" />
    <glyph glyph-name="Otilde" unicode="&#xd5;" horiz-adv-x="185" 
d="M148 544c0 -67 -43 -118 -122 -118v33c37 0 62 24 62 71h-51v136h111v-122z" />
    <glyph glyph-name="Oslash" unicode="&#xd8;" horiz-adv-x="387" 
d="M382 480l-136 -482c-25 -92 -53 -153 -164 -153h-39v87h26c45 0 54 12 64 49l8 28l-133 471h118l54 -238l18 -90l17 90l52 238h115zM322 567h-95v102h95v-102zM170 567h-95v102h95v-102z" />
    <glyph glyph-name="Ugrave" unicode="&#xd9;" horiz-adv-x="483" 
d="M488 666l-175 -390v-276h-143v276l-172 390h150l101 -263l96 263h143zM368 727h-95v102h95v-102zM216 727h-95v102h95v-102z" />
    <glyph glyph-name="Uacute" unicode="&#xda;" horiz-adv-x="105" 
d="M329 705l-497 -782l-54 38l497 781z" />
    <glyph glyph-name="Ucircumflex" unicode="&#xdb;" horiz-adv-x="440" 
d="M391 232l-67 -67l-105 105l-104 -105l-66 66l104 104l-104 105l67 66l105 -104l104 104l66 -65l-105 -104z" />
    <glyph glyph-name="Udieresis" unicode="&#xdc;" horiz-adv-x="267" 
d="M234 0h-57c-18 69 -76 139 -151 156v75c75 17 133 88 151 156h57c0 -70 -36 -156 -91 -194c55 -37 91 -122 91 -193z" />
    <glyph glyph-name="Yacute" unicode="&#xdd;" horiz-adv-x="267" 
d="M241 156c-74 -17 -133 -87 -151 -156h-56c0 71 36 156 91 193c-55 38 -91 124 -91 194h56c18 -68 77 -139 151 -156v-75z" />
    <glyph glyph-name="Thorn" unicode="&#xde;" horiz-adv-x="506" 
d="M282 379h-76v-379h-122v379h-63v95h63v27c0 101 50 165 159 165h41v-90h-20c-48 0 -62 -23 -62 -62v-40h80v-95zM459 547h-118v108h118v-108zM461 0h-122v480h122v-480z" />
    <glyph glyph-name="germandbls" unicode="&#xdf;" horiz-adv-x="506" 
d="M282 379h-76v-379h-122v379h-63v95h63v27c0 101 50 165 159 165h41v-90h-20c-48 0 -62 -23 -62 -62v-40h80v-95zM461 0h-122v666h122v-666z" />
    <glyph glyph-name="agrave" unicode="&#xe0;" horiz-adv-x="424" 
d="M409 117c0 -10 -9 -13 -16 -13c-26 0 -114 3 -153 13c9 -38 13 -160 13 -182c0 -7 -4 -16 -14 -16h-55c-9 0 -13 9 -13 16c0 22 3 144 13 182c-40 -10 -128 -13 -153 -13c-7 0 -16 3 -16 13v55c0 10 9 13 16 13c21 0 116 -4 153 -13c-9 37 -13 94 -13 116s4 79 13 116
c-37 -10 -132 -14 -153 -14c-7 0 -16 4 -16 14v55c0 9 9 13 16 13c25 0 113 -3 153 -13c-10 37 -13 160 -13 182c0 7 4 16 13 16h55c10 0 14 -9 14 -16c0 -22 -4 -145 -13 -182c39 10 127 13 153 13c7 0 16 -4 16 -13v-55c0 -10 -9 -14 -16 -14c-22 0 -116 4 -154 14
c10 -37 14 -94 14 -116s-4 -79 -14 -116c38 9 132 13 154 13c7 0 16 -3 16 -13v-55z" />
    <glyph glyph-name="aacute" unicode="&#xe1;" horiz-adv-x="185" 
d="M148 264h-111v137h111v-137z" />
    <glyph glyph-name="acircumflex" unicode="&#xe2;" horiz-adv-x="185" 
d="M148 14c0 -67 -43 -118 -122 -118v33c37 0 62 24 62 71h-51v136h111v-122z" />
    <glyph glyph-name="atilde" unicode="&#xe3;" horiz-adv-x="333" 
d="M295 14c0 -67 -42 -118 -122 -118v33c38 0 63 24 63 71h-51v136h110v-122zM148 14c0 -67 -43 -118 -122 -118v33c37 0 62 24 62 71h-51v136h111v-122z" />
    <glyph glyph-name="adieresis" unicode="&#xe4;" horiz-adv-x="917" 
d="M891 95c0 -70 -48 -112 -113 -112c-64 0 -113 42 -113 112v125c0 69 49 111 113 111c65 0 113 -42 113 -111v-125zM816 79v157c0 21 -16 36 -38 36c-23 0 -38 -15 -38 -36v-157c0 -21 15 -37 38 -37c22 0 38 16 38 37zM615 95c0 -70 -48 -112 -113 -112
c-64 0 -113 42 -113 112v125c0 69 49 111 113 111c65 0 113 -42 113 -111v-125zM541 79v157c0 21 -16 36 -39 36c-22 0 -38 -15 -38 -36v-157c0 -21 16 -37 38 -37c23 0 39 16 39 37zM580 652l-462 -675l-49 36l463 676zM259 446c0 -70 -48 -111 -113 -111
c-64 0 -112 41 -112 111v125c0 69 48 111 112 111c65 0 113 -42 113 -111v-125zM185 430v157c0 21 -16 37 -39 37c-22 0 -37 -16 -37 -37v-157c0 -21 15 -36 37 -36c23 0 39 15 39 36z" />
    <glyph glyph-name="aring" unicode="&#xe5;" horiz-adv-x="478" 
d="M474 0h-143l-28 132h-138l-28 -132h-134l156 666h160zM284 238l-47 243l-51 -243h98zM383 718c-16 -5 -35 -8 -50 -8c-46 0 -81 32 -94 83c-13 -51 -49 -83 -96 -83c-14 0 -28 3 -43 8v31c41 0 73 31 91 97h99c19 -66 51 -97 93 -97v-31z" />
    <glyph glyph-name="ae" unicode="&#xe6;" horiz-adv-x="447" 
d="M419 0h-371v666h371v-120h-228v-146h157v-108h-157v-167h228v-125zM371 718c-16 -5 -35 -8 -50 -8c-46 0 -81 32 -94 83c-13 -51 -49 -83 -96 -83c-14 0 -28 3 -43 8v31c41 0 73 31 91 97h99c19 -66 51 -97 93 -97v-31z" />
    <glyph glyph-name="ccedilla" unicode="&#xe7;" horiz-adv-x="478" 
d="M474 0h-143l-28 132h-138l-28 -132h-134l156 666h160zM284 238l-47 243l-51 -243h98zM358 849l-89 -143h-68l40 143h117z" />
    <glyph glyph-name="egrave" unicode="&#xe8;" horiz-adv-x="447" 
d="M419 0h-371v666h371v-120h-228v-146h157v-108h-157v-167h228v-125zM353 727h-95v102h95v-102zM201 727h-95v102h95v-102z" />
    <glyph glyph-name="eacute" unicode="&#xe9;" horiz-adv-x="447" 
d="M419 0h-371v666h371v-120h-228v-146h157v-108h-157v-167h228v-125zM268 706h-67l-89 143h116z" />
    <glyph glyph-name="ecircumflex" unicode="&#xea;" horiz-adv-x="240" 
d="M191 0h-143v666h143v-666zM236 849l-89 -143h-68l40 143h117z" />
    <glyph glyph-name="edieresis" unicode="&#xeb;" horiz-adv-x="240" 
d="M191 0h-143v666h143v-666zM264 718c-16 -5 -35 -8 -50 -8c-46 0 -81 32 -94 83c-13 -51 -49 -83 -96 -83c-14 0 -28 3 -43 8v31c41 0 73 31 91 97h99c19 -66 51 -97 93 -97v-31z" />
    <glyph glyph-name="igrave" unicode="&#xec;" horiz-adv-x="240" 
d="M191 0h-143v666h143v-666zM242 727h-95v102h95v-102zM90 727h-95v102h95v-102z" />
    <glyph glyph-name="iacute" unicode="&#xed;" horiz-adv-x="240" 
d="M191 0h-143v666h143v-666zM153 706h-67l-89 143h116z" />
    <glyph glyph-name="icircumflex" unicode="&#xee;" 
d="M479 187c0 -119 -81 -204 -219 -204c-137 0 -219 85 -219 204v292c0 118 82 203 219 203c138 0 219 -85 219 -203v-292zM335 179v308c0 45 -27 75 -75 75c-47 0 -74 -30 -74 -75v-308c0 -45 27 -75 74 -75c48 0 75 30 75 75zM380 849l-89 -143h-68l40 143h117z" />
    <glyph glyph-name="idieresis" unicode="&#xef;" 
d="M479 187c0 -119 -81 -204 -219 -204c-137 0 -219 85 -219 204v292c0 118 82 203 219 203c138 0 219 -85 219 -203v-292zM335 179v308c0 45 -27 75 -75 75c-47 0 -74 -30 -74 -75v-308c0 -45 27 -75 74 -75c48 0 75 30 75 75zM404 718c-16 -5 -35 -8 -50 -8
c-46 0 -81 32 -94 83c-13 -51 -49 -83 -96 -83c-14 0 -28 3 -43 8v31c41 0 73 31 91 97h99c19 -66 51 -97 93 -97v-31z" />
    <glyph glyph-name="eth" unicode="&#xf0;" horiz-adv-x="967" 
d="M867 0h-767v750h767v-750zM858 -104h-6c0 1 -1 5 -1 6l-2 13s-9 -17 -10 -20h-2l-10 20l-2 -13c0 -1 0 -5 -1 -6h-6c1 3 2 8 2 11l2 11c1 3 1 9 2 12h1c1 -2 3 -5 3 -7l10 -18l10 18c1 2 3 6 3 7h1c1 -3 2 -9 2 -12l2 -11c1 -3 1 -8 2 -11zM805 -87c0 -10 -7 -18 -17 -18
s-17 8 -17 17c0 10 7 18 18 18c9 0 16 -8 16 -17zM757 -96l-1 -6c-2 -2 -6 -3 -10 -3c-11 0 -18 7 -18 17s8 18 18 18c4 0 8 -1 11 -3l-2 -5c-2 2 -6 3 -9 3c-6 0 -11 -5 -11 -12c0 -9 5 -13 12 -13c3 0 7 2 10 4zM701 -71l-13 -19v-7v-7h-7v11v3l-5 8c-2 3 -6 8 -8 11l7 1
l10 -15l2 4l7 10h7zM655 -104h-7c1 2 1 8 1 11v4h-16v-8v-7h-7c1 2 1 8 1 11v11c0 3 0 9 -1 11h7v-7v-6h16v2c0 3 0 9 -1 11h7v-7v-19v-7zM612 -81c0 -7 -5 -12 -15 -12h-3v-4v-7h-7c1 2 1 8 1 11v11c0 3 0 9 -1 11c2 0 7 1 11 1c9 0 14 -6 14 -11zM574 -104h-6l-4 8h-14v-1
c-1 -2 -2 -4 -3 -7h-7l12 24c2 4 3 7 4 10h2l11 -24c2 -3 4 -7 5 -10zM533 -104h-7l-8 13h-5v-6v-7h-7v11v11v11h10c9 0 14 -4 14 -9s-3 -8 -7 -10l5 -7c1 -2 4 -5 5 -7zM490 -101c-3 -2 -8 -4 -13 -4c-10 0 -18 7 -18 17s8 18 19 18c4 0 8 -2 11 -4l-2 -5c-2 2 -6 4 -10 4
c-7 0 -11 -5 -11 -13c0 -7 5 -12 12 -12c2 0 4 1 6 2v4v3h-3h-6v5h7h8v-11v-4zM446 -87c0 -10 -7 -18 -17 -18s-17 8 -17 17c0 10 7 18 18 18c9 0 16 -8 16 -17zM400 -81c0 -7 -5 -12 -15 -12h-3v-4c0 -2 0 -6 1 -7h-7v11v11v11c1 0 6 1 10 1c9 0 14 -6 14 -11zM363 -71
l-13 -19v-7v-7h-7v11v3l-5 8c-2 3 -5 8 -8 11l7 1l10 -15l2 4l7 10h7zM322 -70c-1 -2 -1 -4 -1 -6h-11v-3v-18v-7h-7c1 2 1 8 1 11v10v7h-12v6c5 -1 9 -1 15 -1c5 0 10 0 15 1zM266 -71l-9 -24c-2 -4 -3 -7 -4 -9l-1 -1l-9 22l-6 -12c-1 -2 -3 -7 -4 -10h-1l-9 25
c-1 3 -3 6 -4 9l7 1l7 -22l6 13c0 1 3 7 3 9h1l9 -22l5 12l3 9h6zM210 -71l-9 -24c-2 -4 -3 -7 -3 -9l-2 -1l-9 22l-6 -12c-1 -2 -3 -7 -4 -10h-1l-9 25c-1 3 -2 6 -4 9l7 1l7 -22l6 13c0 1 3 7 3 9h2l9 -22l4 12l3 9h6zM155 -71l-10 -24c-1 -4 -2 -7 -3 -9l-1 -1l-10 22
l-5 -12c-1 -2 -4 -7 -5 -10h-1l-9 25l-3 9l6 1l8 -22l5 13c1 1 3 7 4 9h1l9 -22l4 12l3 9h7zM715 -101c0 -2 -2 -4 -4 -4c-3 0 -4 2 -4 4s2 4 4 4s4 -2 4 -4zM280 -101c0 -2 -1 -4 -4 -4c-2 0 -3 2 -3 4s1 4 4 4c2 0 3 -2 3 -4zM559 686c-2 5 -2 8 -4 12c-2 -1 -3 -1 -15 -1
s-13 0 -16 1c0 -4 -1 -7 -2 -12h1h1c2 7 3 9 9 9c3 0 3 -1 3 -3v-22c0 -4 0 -5 -5 -6c-1 0 -1 0 -1 -1s0 -1 1 -1h9h8c1 0 1 0 1 1s0 1 -1 1c-4 1 -5 2 -5 6v22c0 2 1 3 3 3c5 0 9 -3 11 -9h2zM503 662v1v1c-6 1 -6 2 -6 6v19c0 4 0 6 6 6v1v1h-9h-9v-1v-1c5 0 5 -2 5 -6v-8
h-17v8c0 4 0 6 5 6v1v1h-9h-8c-1 0 -1 0 -1 -1s0 -1 1 -1c4 0 5 -2 5 -6v-19c0 -4 -1 -5 -5 -6c-1 0 -1 0 -1 -1s0 -1 1 -1h8h9v1v1c-5 1 -5 2 -5 6v9h17v-9c0 -4 0 -5 -5 -6v-1v-1h9h9zM439 663c0 1 -1 1 -1 1c-5 1 -5 2 -5 6v19c0 4 0 6 5 6c0 0 1 0 1 1s-1 1 -1 1h-16
h-12c0 -3 0 -6 -2 -10l2 -1c2 6 6 8 9 8h3c2 0 4 0 4 -3v-10h-4c-3 0 -6 1 -6 5c0 2 -2 2 -2 0v-6v-6h2c0 5 3 6 6 6h4v-12c0 -3 -2 -3 -4 -3h-3c-5 0 -9 3 -12 9l-1 -1c1 -4 3 -7 4 -11h12h16c0 0 1 0 1 1zM826 619v4h-685v-4h685zM694 540c0 20 -18 38 -36 38
c-9 0 -22 -6 -22 -22c0 -21 18 -38 36 -38c9 0 22 6 22 22zM587 536c0 7 -6 14 -13 18c2 2 4 5 4 9c0 6 -8 15 -20 15c-8 0 -13 -6 -13 -12c0 -3 2 -6 5 -6s4 2 4 3c0 4 -3 3 -3 6s3 6 7 6c7 0 10 -5 10 -12c0 -4 -1 -5 -2 -6h-8c-4 0 -8 -2 -8 -6c0 -3 4 -6 8 -6
c5 0 8 2 11 5c4 -3 6 -8 6 -15c0 -11 -5 -14 -12 -14s-12 3 -12 9c0 2 1 3 3 3c1 0 2 -2 5 -2c2 0 4 2 4 5s-3 5 -7 5c-5 0 -9 -5 -9 -10c0 -7 7 -13 16 -13c15 0 24 8 24 18zM292 536c0 7 -5 14 -13 18c2 2 4 5 4 9c0 6 -8 15 -20 15c-7 0 -13 -6 -13 -12c0 -3 2 -6 5 -6
s5 2 5 3c0 4 -3 3 -3 6s2 6 6 6c7 0 10 -5 10 -12c0 -4 -1 -5 -1 -6h-9s-7 -2 -7 -6c0 -3 4 -6 7 -6c5 0 9 2 12 5c3 -3 6 -8 6 -15c0 -11 -6 -14 -12 -14c-8 0 -12 3 -12 9c0 2 0 3 2 3c1 0 2 -2 5 -2s5 2 5 5s-3 5 -8 5s-9 -5 -9 -10c0 -7 7 -13 17 -13c15 0 23 8 23 18z
M820 520c0 1 -1 2 -2 2c-8 2 -8 4 -9 9l-8 33c-1 1 -1 2 -1 4s2 4 8 5c1 0 1 0 1 1s-1 2 -2 2c-5 0 -9 -1 -14 -1c-6 0 -8 1 -13 1v-1s0 -2 1 -2c7 -1 7 -4 9 -9l3 -14h-25l-4 14v4s1 4 7 5v1s0 2 -1 2c-6 0 -8 -1 -14 -1c-5 0 -8 1 -13 1v-1v-2c9 -1 9 -4 11 -9l7 -33
c1 -1 1 -2 1 -4c0 -3 -1 -4 -8 -5v-1c0 0 0 -2 1 -2c6 0 9 1 15 1s7 -1 12 -1v1v2c-9 2 -9 4 -9 9l-4 15h25l3 -15c1 -1 1 -2 1 -4c0 -3 -1 -4 -7 -5v-1c0 0 0 -2 1 -2c6 0 8 1 14 1s8 -1 13 -1c0 0 1 0 1 1zM497 519v1s0 2 -1 2c-8 2 -8 4 -10 9l-7 33c-1 1 -1 2 -1 4
s1 4 7 5c1 0 1 0 1 1s-1 2 -1 2c-4 0 -19 -1 -25 -1s-14 1 -20 1c1 -2 1 -4 1 -7s-1 -6 -1 -10c0 -1 1 -1 2 -1s1 0 1 1c1 10 5 13 14 13h4c3 0 5 -1 6 -6l3 -16h-4c-6 0 -9 1 -12 9c0 1 -1 1 -2 1c0 0 -1 0 -1 -1c1 -5 2 -6 3 -11c1 -4 1 -7 2 -12h2h1c-1 9 2 11 8 11h5
l3 -16c1 -1 1 -2 1 -4c0 -3 -2 -4 -8 -5c0 0 -1 0 -1 -1c0 0 1 -2 2 -2c5 0 9 1 14 1c6 0 8 -1 14 -1zM203 520c0 1 -1 2 -1 2c-9 2 -9 4 -11 9l-7 33c-1 1 -1 2 -1 4s2 4 8 5v1v2c-6 0 -8 -1 -13 -1s-8 1 -14 1c-12 0 -20 -3 -20 -13c0 -8 10 -15 19 -17l-8 -16
c-4 -6 -8 -8 -14 -9c-1 0 -1 -1 -1 -2s1 -1 2 -1c4 0 10 1 18 1l12 23c1 3 3 3 5 3l4 -14v-4c0 -3 -2 -4 -8 -5v-1c0 0 0 -2 1 -2c5 0 9 1 15 1c5 0 8 -1 13 -1c1 0 1 0 1 1zM399 521c0 3 -4 8 -13 9c-9 12 -3 48 -29 48c-7 0 -13 -6 -13 -10c0 -3 2 -5 5 -5c4 0 4 2 4 6
c0 3 1 6 5 6c13 0 5 -29 19 -45c-14 0 -12 -13 -21 -13c-3 0 -5 2 -5 4c0 3 2 3 2 5s-3 4 -5 4c-4 0 -5 -3 -5 -6c0 -6 6 -11 13 -11c18 0 16 12 27 12c3 -4 7 -7 12 -7c2 0 4 1 4 3zM826 476v4h-685v-4h685zM825 378v62h-147v-62h36v28h11v-65h-14v-33h81v33h-14v65h11v-28
h36zM644 406v34h-81v-34h11l-15 -23l-15 23h10v34h-62v-34h12l37 -46v-19h-14v-33h81v33h-15v20l37 45h14zM455 308v33h-14v65h14v34h-96c-29 0 -47 -18 -47 -40c0 -23 18 -40 47 -40h30v-19h-15v-33h81zM277 308v33h-14v65h14v34h-141v-62h41v28h33v-20h-24v-24h24v-21h-33
v28h-41v-61h141zM826 272v4h-685v-4h685zM725 192c0 20 -18 38 -36 38c-9 0 -21 -6 -21 -22c0 -20 18 -38 35 -38c9 0 22 6 22 22zM413 171v2c0 0 0 2 -1 2c-9 1 -9 3 -10 9l-8 32v4c0 3 1 4 7 5v1v2h-15c-6 0 -11 1 -15 1c-12 0 -25 -8 -25 -23c0 -21 18 -34 35 -34h15
c5 0 13 0 17 -1zM202 215c1 1 1 2 0 2c-4 7 -8 13 -18 13s-14 -7 -14 -18v-5c-4 13 -13 23 -24 23c-6 0 -9 -6 -9 -12v-1h3c0 4 3 6 8 6c13 0 19 -14 24 -33l1 -6v-4c0 -3 -1 -4 -7 -5v-2c0 0 0 -2 1 -2c6 0 9 1 15 1c5 0 7 -1 12 -1c0 0 1 1 1 2l-1 2c-9 1 -9 3 -10 9l-2 8
c-2 6 -3 12 -3 17c0 8 3 13 9 13s9 -4 12 -7h2zM823 173c0 0 -1 2 -2 2c-8 1 -8 3 -9 9l-9 32v4c0 3 2 4 8 5l1 1c0 1 -1 2 -2 2h-25h-19v-6v-11c-1 0 0 -1 1 -1s1 1 1 1c2 10 5 13 14 13h4c3 0 5 -1 6 -6l4 -15h-5c-6 0 -9 0 -12 9h-1h-2c1 -6 2 -7 3 -12c1 -3 1 -7 3 -12
h1h1c-1 9 2 11 8 11h5l3 -15c0 -2 1 -3 1 -4c0 -3 -1 -4 -8 -5v-2c0 0 0 -2 1 -2c6 0 9 1 15 1s8 -1 13 -1c0 0 1 1 1 2zM620 225c0 2 0 3 -1 3h-15h-14v-1c0 0 0 -2 1 -2c9 -1 9 -3 10 -9l5 -21c1 -4 2 -7 2 -10c0 -6 -4 -10 -13 -10c-11 0 -17 10 -20 22l-4 19
c0 2 -1 3 -1 4c0 3 2 4 8 5v2v1h-12h-11v-1c0 0 0 -2 1 -2c9 -1 10 -3 11 -9l5 -20c3 -11 8 -26 26 -26c16 0 21 9 21 16c0 3 -1 5 -2 8l-5 22c0 2 -1 3 -1 4c0 3 2 4 9 5zM522 173l-1 2c-6 1 -9 4 -9 9l-7 32c-1 1 -1 2 -1 3c0 4 2 5 9 6c1 0 1 1 1 1c0 1 -1 2 -2 2h-5h-9
l-30 -40l-4 28c-1 5 0 8 7 9c1 0 1 1 1 1c0 1 -1 2 -2 2c-3 0 -6 -1 -11 -1c-4 0 -6 1 -10 1v-1v-2c7 -1 9 -4 10 -9l8 -45c0 -1 0 -1 1 -1h2l31 44l5 -30c1 -5 0 -8 -6 -9c-1 0 -1 -1 -1 -2l1 -2c3 0 7 1 12 1c4 0 6 -1 9 -1c1 0 1 1 1 2zM306 173l-1 2c-9 1 -9 3 -10 9
l-8 32v4c0 3 1 4 7 5c1 0 1 1 1 1c0 1 -1 2 -2 2h-12h-14c-12 0 -19 -3 -19 -12c0 -8 9 -16 18 -17l-9 -16c-3 -6 -7 -8 -12 -10c-1 0 -1 0 -1 -1c0 -2 1 -2 1 -2c5 1 10 2 18 2l12 22c2 3 3 3 6 3l3 -13v-4c0 -3 -1 -4 -7 -5c-1 0 -1 -1 -1 -2l1 -2c6 0 9 1 15 1
s8 -1 13 -1c0 0 1 1 1 2zM826 128v4h-685v-4h685zM694 47v1v1c-5 0 -6 2 -6 5l-1 20c0 3 1 5 6 5v2v1c-2 0 -3 -1 -5 -1s-3 1 -5 1l-24 -25v17c0 3 0 5 6 5v2v1c-3 0 -5 -1 -8 -1c-2 0 -4 1 -7 1v-1v-2c6 0 6 -2 6 -5v-28h2h1l25 27l1 -19c0 -3 0 -5 -5 -5c-1 0 -1 -1 -1 -1
c0 -1 0 -1 1 -1h6h8zM632 46v2v1c-6 0 -6 2 -6 5v20c0 3 0 5 6 5v2v1c-4 0 -12 -1 -16 -1c-5 0 -8 1 -12 1c-1 -4 -2 -6 -2 -10v-1c1 0 1 0 1 1c2 6 6 7 10 7h2c2 0 4 0 4 -4v-9h-4c-3 0 -5 0 -6 5h-1v-7v-6h1c1 6 3 6 6 6h4v-11c0 -3 -2 -4 -4 -4h-2c-5 0 -10 3 -12 9h-1
c-1 0 -1 0 -1 -1c2 -3 3 -6 4 -11c4 1 8 1 12 1c5 0 13 0 17 -1zM582 81c-4 1 -4 0 -7 0s-4 1 -8 1v-1v-2c2 0 2 0 2 -3v-2l-9 -19l-6 9l5 9c1 4 2 6 6 6c0 0 1 1 1 2l-1 1c-4 0 -3 -1 -7 -1c-3 0 -3 1 -7 1c-2 0 -3 -1 -5 -1s-4 1 -7 1v-1c0 -1 0 -2 1 -2c3 0 5 -2 7 -6
l3 -5l-7 -13l-8 18v3c0 3 0 3 2 3c1 0 1 1 1 2c0 0 0 1 -1 1c-2 0 -3 -1 -6 -1c-2 0 -3 1 -5 1v-1v-2c4 0 4 -2 6 -6l12 -27h1h1l7 15l9 -15h1l12 27c3 5 3 6 6 6c1 0 1 1 1 2zM479 79v2c-3 1 -4 0 -8 0s-5 1 -8 1c-1 0 -1 -1 -1 -1c0 -1 0 -2 1 -2s2 0 2 -2
c0 -1 0 -2 -1 -3l-6 -9l-6 9c-1 1 -1 2 -1 2c0 3 1 3 4 3v2v1c-3 0 -5 -1 -8 -1c-2 0 -4 1 -6 1v-1v-2c4 0 5 -1 8 -5l8 -12v-8c0 -3 0 -5 -5 -5v-1v-2c3 0 4 1 9 1c3 0 5 -1 8 -1c1 0 1 1 1 2c0 0 0 1 -1 1c-5 0 -5 2 -5 5v8l8 12c2 4 3 5 7 5zM424 64c0 10 -8 18 -20 18
s-19 -8 -19 -18s7 -18 19 -18s20 8 20 18zM364 48c0 0 0 1 -1 1c-5 0 -5 2 -5 5v20c0 3 0 5 5 5c1 0 1 1 1 2c0 0 0 1 -1 1c-3 0 -5 -1 -9 -1s-5 1 -9 1c-7 0 -12 -4 -12 -9c0 -4 3 -7 8 -9l-8 -11c-1 -2 -2 -4 -7 -4v-1v-1h6h6l6 11c3 4 3 5 7 5v-9c0 -3 -1 -5 -5 -5
c-1 0 -1 -1 -1 -1c0 -1 0 -2 1 -2c3 0 4 1 8 1c5 0 6 -1 9 -1c1 0 1 1 1 2zM308 46v2v1c-5 0 -6 2 -6 5v20c0 3 1 5 6 5v2v1c-3 0 -5 -1 -9 -1s-5 1 -9 1v-1v-2c6 0 6 -2 6 -5v-10c-2 0 -3 1 -4 3l-8 8c-1 1 -2 2 -2 3s1 1 3 1v2v1c-3 0 -4 -1 -7 -1s-4 1 -6 1v-1v-2
c5 0 6 -2 8 -4l9 -9l-13 -13c-2 -2 -4 -4 -7 -4l-1 -1c0 -1 0 -2 1 -2c3 0 4 1 8 1c3 0 6 -1 10 -1v2v1c-3 0 -3 0 -3 2c0 1 0 1 1 2l7 8c1 1 2 2 4 2v-9c0 -3 0 -5 -6 -5v-1v-2c4 0 5 1 9 1s6 -1 9 -1zM523 -81c0 4 -2 6 -7 6h-3v-3v-9h4c4 0 6 3 6 6zM605 -82
c0 4 -2 6 -7 6h-4v-2v-10h2c6 0 9 2 9 6zM393 -82c0 4 -2 6 -7 6h-4v-2v-10h3c5 0 8 2 8 6zM562 -92l-5 11l-5 -11h10zM798 -88c0 9 -4 13 -10 13s-10 -5 -10 -12c0 -8 4 -13 10 -13s10 5 10 12zM439 -88c0 9 -4 13 -10 13s-10 -5 -10 -12c0 -8 4 -13 10 -13c7 0 10 5 10 12
zM176 548h-5c-12 0 -15 9 -15 15c0 7 2 9 8 9s7 -1 9 -6zM565 553c-2 -3 -5 -4 -7 -4c-3 0 -4 1 -4 2c0 2 1 3 4 3c2 0 5 0 7 -1zM270 553c-2 -3 -4 -4 -7 -4c-2 0 -3 1 -3 2c0 2 0 3 3 3s5 0 7 -1zM683 535c0 -10 -3 -14 -12 -14c-12 0 -24 19 -24 39c0 10 3 15 12 15
c12 0 24 -19 24 -40zM389 384h-11c-9 0 -13 5 -13 11s4 11 13 11h11v-22zM280 201h-5c-12 0 -15 8 -15 14c0 7 2 10 8 10c5 0 7 -1 7 -7zM713 188c0 -10 -3 -15 -10 -15c-14 0 -24 19 -24 40c0 10 3 14 10 14c14 0 24 -19 24 -39zM392 182c0 -6 -1 -6 -4 -6h-5
c-15 0 -26 15 -26 31c0 11 5 18 14 18l6 -1c3 0 4 0 6 -6zM554 77c0 -1 -1 -3 -3 -6c-1 2 -2 5 -2 5c0 3 1 3 2 3c2 0 3 0 3 -2zM351 65h-3c-6 0 -8 2 -8 8c0 3 2 6 7 6c3 0 4 0 4 -4v-10zM416 64c0 -9 -3 -16 -12 -16c-8 0 -12 7 -12 16s4 17 12 17c9 0 12 -8 12 -17z" />
    <glyph glyph-name="ntilde" unicode="&#xf1;" 
d="M479 187c0 -119 -81 -204 -219 -204c-137 0 -219 85 -219 204v292c0 118 82 203 219 203c138 0 219 -85 219 -203v-292zM335 179v308c0 45 -27 75 -75 75c-47 0 -74 -30 -74 -75v-308c0 -45 27 -75 74 -75c48 0 75 30 75 75zM295 706h-67l-89 143h116z" />
    <glyph glyph-name="ograve" unicode="&#xf2;" horiz-adv-x="527" 
d="M479 170c0 -111 -87 -187 -214 -187c-126 0 -218 76 -218 187v496h145v-494c0 -45 26 -70 73 -70c48 0 75 25 75 70v494h139v-496zM386 849l-89 -143h-68l40 143h117z" />
    <glyph glyph-name="oacute" unicode="&#xf3;" horiz-adv-x="527" 
d="M479 170c0 -111 -87 -187 -214 -187c-126 0 -218 76 -218 187v496h145v-494c0 -45 26 -70 73 -70c48 0 75 25 75 70v494h139v-496zM412 718c-16 -5 -35 -8 -50 -8c-46 0 -81 32 -94 83c-13 -51 -49 -83 -96 -83c-14 0 -28 3 -43 8v31c41 0 73 31 91 97h99
c19 -66 51 -97 93 -97v-31z" />
    <glyph glyph-name="ocircumflex" unicode="&#xf4;" horiz-adv-x="527" 
d="M479 170c0 -111 -87 -187 -214 -187c-126 0 -218 76 -218 187v496h145v-494c0 -45 26 -70 73 -70c48 0 75 25 75 70v494h139v-496zM303 706h-67l-89 143h116z" />
    <glyph glyph-name="otilde" unicode="&#xf5;" horiz-adv-x="212" 
d="M167 0h-122v480h122v-480z" />
    <glyph glyph-name="odieresis" unicode="&#xf6;" horiz-adv-x="313" 
d="M299 558c-16 -5 -35 -8 -50 -8c-46 0 -81 32 -94 83c-13 -51 -49 -83 -96 -83c-14 0 -28 3 -43 8v31c41 0 73 31 91 97h99c19 -66 51 -97 93 -97v-31z" />
    <glyph glyph-name="divide" unicode="&#xf7;" horiz-adv-x="326" 
d="M312 647c0 -50 -26 -85 -84 -85c-54 0 -99 51 -129 51c-16 0 -23 -10 -23 -25v-24h-46c-10 13 -15 26 -15 44c0 50 26 85 83 85c55 0 100 -50 129 -50c17 0 24 9 24 25v24h46c9 -13 15 -27 15 -45z" />
    <glyph glyph-name="oslash" unicode="&#xf8;" horiz-adv-x="292" 
d="M279 578h-266v70h266v-70z" />
    <glyph glyph-name="ugrave" unicode="&#xf9;" horiz-adv-x="279" 
d="M266 639c0 -50 -54 -88 -127 -88s-126 38 -126 88c0 18 4 31 11 44h55v-15c0 -27 17 -48 60 -48c44 0 61 21 61 48v15h55c7 -13 11 -26 11 -44z" />
    <glyph glyph-name="uacute" unicode="&#xfa;" horiz-adv-x="279" 
d="M187 567h-95v102h95v-102z" />
    <glyph glyph-name="ucircumflex" unicode="&#xfb;" horiz-adv-x="209" 
d="M200 637c0 -48 -39 -91 -94 -91c-56 0 -94 43 -94 91s38 91 94 91c55 0 94 -43 94 -91zM152 637c0 30 -17 50 -46 50s-46 -20 -46 -50c0 -29 17 -50 46 -50s46 21 46 50z" />
    <glyph glyph-name="udieresis" unicode="&#xfc;" horiz-adv-x="218" 
d="M222 -162c0 -53 -44 -94 -103 -94c-20 0 -37 6 -43 11v37h20c29 0 45 12 45 36v31c0 25 -16 38 -45 38c-16 0 -31 -8 -47 -25l-36 26l93 125l37 -25l-55 -72c10 7 28 8 41 8c59 0 93 -40 93 -96z" />
    <glyph glyph-name="yacute" unicode="&#xfd;" horiz-adv-x="292" 
d="M304 689l-88 -143h-67l59 143h96zM156 689l-66 -143h-66l38 143h94z" />
    <glyph glyph-name="thorn" unicode="&#xfe;" horiz-adv-x="218" 
d="M203 -187c-11 -8 -36 -13 -70 -13c-67 0 -112 38 -112 95c0 58 45 111 146 141l12 -13c-50 -32 -81 -68 -81 -111c0 -34 23 -62 78 -62h27v-37z" />
    <glyph glyph-name="ydieresis" unicode="&#xff;" horiz-adv-x="314" 
d="M299 653c-42 0 -74 -31 -93 -97h-99c-18 66 -50 97 -91 97v31c15 5 35 7 49 7c47 0 82 -31 95 -82c13 51 49 82 95 82c15 0 28 -2 44 -7v-31z" />
  </font>
</defs>
</svg>
